<?xml version="1.0" encoding="UTF-8" standalone="no"?>
<svg
   xmlns:dc="http://purl.org/dc/elements/1.1/"
   xmlns:cc="http://creativecommons.org/ns#"
   xmlns:rdf="http://www.w3.org/1999/02/22-rdf-syntax-ns#"
   xmlns:svg="http://www.w3.org/2000/svg"
   xmlns="http://www.w3.org/2000/svg"
   viewBox="0 0 704 738.66669"
   height="738.66669"
   width="704"
   xml:space="preserve"
   id="svg2"
   version="1.1"><metadata
     id="metadata8"><rdf:RDF><cc:Work
         rdf:about=""><dc:format>image/svg+xml</dc:format><dc:type
           rdf:resource="http://purl.org/dc/dcmitype/StillImage" /></cc:Work></rdf:RDF></metadata><defs
     id="defs6"><clipPath
       id="clipPath20"
       clipPathUnits="userSpaceOnUse"><path
         style="clip-rule:evenodd"
         id="path18"
         d="m 1797.85,2068.59 c 427.34,-346.51 829.23,-717.64 1395.77,-339.06 280.73,187.6 512.55,442.05 818.54,592.65 377.79,185.96 844.82,207.05 1259.31,101.61 -104.96,73.97 -213.99,137.26 -328.34,185.23 C 4570.54,2765.27 4097.07,2781 3729.95,2600.3 3487.5,2480.98 3303.82,2279.39 3081.4,2130.74 2632.54,1830.8 2314.1,2124.86 1975.52,2399.38 1571.21,2727.2 1011.43,2790.91 518.695,2644.34 336.629,2590.18 161.602,2500.02 1.28125,2389.7 612.766,2558.82 1299.02,2473.04 1797.85,2068.59 Z" /></clipPath><linearGradient
       id="linearGradient28"
       spreadMethod="pad"
       gradientTransform="matrix(10,0,0,10,-340,-1440)"
       gradientUnits="userSpaceOnUse"
       y2="318.715"
       x2="297.63699"
       y1="412.27701"
       x1="297.63699"><stop
         id="stop22"
         offset="0"
         style="stop-opacity:1;stop-color:#299550" /><stop
         id="stop24"
         offset="0.53125"
         style="stop-opacity:1;stop-color:#215782" /><stop
         id="stop26"
         offset="1"
         style="stop-opacity:1;stop-color:#1d5279" /></linearGradient><clipPath
       id="clipPath38"
       clipPathUnits="userSpaceOnUse"><path
         style="clip-rule:evenodd"
         id="path36"
         d="M 749.129,3509.96 C 544.445,3425.99 378.5,3357.92 378.5,3357.92 L 736.695,3178.3 c 149.785,-75.1 207.012,-213.76 159.719,-346.07 137.116,10.27 275.026,4.34 409.536,-18.48 873.87,-138.61 1055.13,-689.57 1425.94,-674.78 383.81,15.3 601.79,567.88 1339.75,688.65 244.85,42.45 505.96,21.07 739.84,-52.33 l -231.95,185.31 c -172.87,138.12 -164.92,351.11 17.84,475.76 182.7,124.64 330.81,225.69 330.81,225.69 l -387.7,101.33 c -214.16,55.97 -293.59,253.85 -177.46,441.98 116.11,188.11 210.25,340.61 210.25,340.61 l -395.39,-64.92 c -218.36,-35.85 -371.5,112.68 -342.04,331.75 29.46,219.06 53.32,396.66 53.32,396.66 l -334.68,-219.94 c -184.83,-121.48 -385.19,-47.98 -447.48,164.17 -62.32,212.15 -112.83,384.13 -112.83,384.13 l -216.09,-336.94 c -119.37,-186.11 -332.3,-200.34 -475.6,-31.81 -143.28,168.52 -259.46,305.18 -259.46,305.18 l -60.16,-395.71 c -33.24,-218.53 -221.92,-318.02 -421.41,-222.25 -199.53,95.79 -361.25,173.44 -361.25,173.44 l 106.17,-386.02 c 58.63,-213.18 -73.15,-380.74 -294.38,-374.28 -221.228,6.48 -400.568,11.72 -400.568,11.72 l 254.156,-309.6 c 140.372,-170.97 88.235,-377.62 -116.449,-461.59 z" /></clipPath></defs><g
     transform="matrix(1.3333333,0,0,-1.3333333,0,738.66667)"
     id="g10"><g
       transform="scale(0.1)"
       id="g12"><g
         id="g14"><g
           clip-path="url(#clipPath20)"
           id="g16"><path
             id="path30"
             style="fill:url(#linearGradient28);fill-opacity:1;fill-rule:nonzero;stroke:none"
             d="m 1797.85,2068.59 c 427.34,-346.51 829.23,-717.64 1395.77,-339.06 280.73,187.6 512.55,442.05 818.54,592.65 377.79,185.96 844.82,207.05 1259.31,101.61 -104.96,73.97 -213.99,137.26 -328.34,185.23 C 4570.54,2765.27 4097.07,2781 3729.95,2600.3 3487.5,2480.98 3303.82,2279.39 3081.4,2130.74 2632.54,1830.8 2314.1,2124.86 1975.52,2399.38 1571.21,2727.2 1011.43,2790.91 518.695,2644.34 336.629,2590.18 161.602,2500.02 1.28125,2389.7 612.766,2558.82 1299.02,2473.04 1797.85,2068.59" /></g></g><g
         id="g32"><g
           clip-path="url(#clipPath38)"
           id="g34"><path
             id="path40"
             style="fill:#fff200;fill-opacity:1;fill-rule:evenodd;stroke:none"
             d="M 378.5,2124.18 H 4928.18 V 5537.82 H 378.5 Z" /><path
             id="path42"
             style="fill:#f47216;fill-opacity:1;fill-rule:evenodd;stroke:none"
             d="m 2768.46,2831.86 c -16.34,0 -29.58,-13.24 -29.58,-29.57 0,-16.34 13.24,-29.58 29.58,-29.58 16.33,0 29.58,13.24 29.58,29.58 0,16.33 -13.25,29.57 -29.58,29.57" /><path
             id="path44"
             style="fill:#f47216;fill-opacity:1;fill-rule:evenodd;stroke:none"
             d="m 2768.46,2822 c -10.89,0 -19.72,-8.82 -19.72,-19.71 0,-10.9 8.83,-19.72 19.72,-19.72 10.89,0 19.72,8.82 19.72,19.72 0,10.89 -8.83,19.71 -19.72,19.71 z m 0,29.58 c -27.23,0 -49.3,-22.07 -49.3,-49.29 0,-27.23 22.07,-49.3 49.3,-49.3 27.22,0 49.29,22.07 49.29,49.3 0,27.22 -22.07,49.29 -49.29,49.29" /><path
             id="path46"
             style="fill:#f47216;fill-opacity:1;fill-rule:evenodd;stroke:none"
             d="m 2768.46,2841.72 c -21.78,0 -39.44,-17.65 -39.44,-39.43 0,-21.79 17.66,-39.44 39.44,-39.44 21.78,0 39.43,17.65 39.43,39.44 0,21.78 -17.65,39.43 -39.43,39.43 z m 0,29.58 c -38.12,0 -69.02,-30.9 -69.02,-69.01 0,-38.12 30.9,-69.02 69.02,-69.02 38.11,0 69.01,30.9 69.01,69.02 0,38.11 -30.9,69.01 -69.01,69.01" /><path
             id="path48"
             style="fill:#f47216;fill-opacity:1;fill-rule:evenodd;stroke:none"
             d="m 2768.46,2861.44 c -32.67,0 -59.16,-26.48 -59.16,-59.15 0,-32.67 26.49,-59.16 59.16,-59.16 32.67,0 59.15,26.49 59.15,59.16 0,32.67 -26.48,59.15 -59.15,59.15 z m 0,29.58 c -49.01,0 -88.74,-39.73 -88.74,-88.73 0,-49.01 39.73,-88.74 88.74,-88.74 49,0 88.73,39.73 88.73,88.74 0,49 -39.73,88.73 -88.73,88.73" /><path
             id="path50"
             style="fill:#f47216;fill-opacity:1;fill-rule:evenodd;stroke:none"
             d="m 2768.46,2881.16 c -43.57,0 -78.88,-35.31 -78.88,-78.87 0,-43.56 35.31,-78.88 78.88,-78.88 43.56,0 78.87,35.32 78.87,78.88 0,43.56 -35.31,78.87 -78.87,78.87 z m 0,29.58 c -59.9,0 -108.46,-48.56 -108.46,-108.45 0,-59.9 48.56,-108.46 108.46,-108.46 59.9,0 108.45,48.56 108.45,108.46 0,59.89 -48.55,108.45 -108.45,108.45" /><path
             id="path52"
             style="fill:#f47216;fill-opacity:1;fill-rule:evenodd;stroke:none"
             d="m 2768.46,2900.88 c -54.46,0 -98.6,-44.14 -98.6,-98.59 0,-54.45 44.14,-98.59 98.6,-98.59 54.45,0 98.59,44.14 98.59,98.59 0,54.45 -44.14,98.59 -98.59,98.59 z m 0,29.58 c -70.79,0 -128.17,-57.39 -128.17,-128.17 0,-70.79 57.38,-128.18 128.17,-128.18 70.78,0 128.17,57.39 128.17,128.18 0,70.78 -57.39,128.17 -128.17,128.17" /><path
             id="path54"
             style="fill:#f47216;fill-opacity:1;fill-rule:evenodd;stroke:none"
             d="m 2768.46,2920.6 c -65.35,0 -118.32,-52.97 -118.32,-118.31 0,-65.34 52.97,-118.32 118.32,-118.32 65.34,0 118.31,52.98 118.31,118.32 0,65.34 -52.97,118.31 -118.31,118.31 z m 0,29.58 c -81.68,0 -147.89,-66.22 -147.89,-147.89 0,-81.68 66.21,-147.9 147.89,-147.9 81.67,0 147.89,66.22 147.89,147.9 0,81.67 -66.22,147.89 -147.89,147.89" /><path
             id="path56"
             style="fill:#f47216;fill-opacity:1;fill-rule:evenodd;stroke:none"
             d="m 2768.46,2940.32 c -76.24,0 -138.03,-61.8 -138.03,-138.03 0,-76.24 61.79,-138.04 138.03,-138.04 76.23,0 138.02,61.8 138.02,138.04 0,76.23 -61.79,138.03 -138.02,138.03 z m 0,29.57 c -92.57,0 -167.61,-75.03 -167.61,-167.6 0,-92.57 75.04,-167.61 167.61,-167.61 92.56,0 167.61,75.04 167.61,167.61 0,92.57 -75.05,167.6 -167.61,167.6" /><path
             id="path58"
             style="fill:#f47216;fill-opacity:1;fill-rule:evenodd;stroke:none"
             d="m 2768.46,2960.04 c -87.13,0 -157.75,-70.63 -157.75,-157.75 0,-87.13 70.62,-157.75 157.75,-157.75 87.12,0 157.75,70.62 157.75,157.75 0,87.12 -70.63,157.75 -157.75,157.75 z m 0,29.57 c -103.46,0 -187.33,-83.86 -187.33,-187.32 0,-103.46 83.87,-187.33 187.33,-187.33 103.45,0 187.33,83.87 187.33,187.33 0,103.46 -83.88,187.32 -187.33,187.32" /><path
             id="path60"
             style="fill:#f47216;fill-opacity:1;fill-rule:evenodd;stroke:none"
             d="m 2768.46,2979.75 c -98.01,0 -177.47,-79.45 -177.47,-177.46 0,-98.02 79.46,-177.47 177.47,-177.47 98.01,0 177.47,79.45 177.47,177.47 0,98.01 -79.46,177.46 -177.47,177.46 z m 0,29.58 c -114.35,0 -207.05,-92.69 -207.05,-207.04 0,-114.35 92.7,-207.05 207.05,-207.05 114.34,0 207.04,92.7 207.04,207.05 0,114.35 -92.7,207.04 -207.04,207.04" /><path
             id="path62"
             style="fill:#f47216;fill-opacity:1;fill-rule:evenodd;stroke:none"
             d="m 2768.46,2999.47 c -108.91,0 -197.19,-88.28 -197.19,-197.18 0,-108.91 88.28,-197.19 197.19,-197.19 108.9,0 197.18,88.28 197.18,197.19 0,108.9 -88.28,197.18 -197.18,197.18 z m 0,29.58 c -125.24,0 -226.77,-101.53 -226.77,-226.76 0,-125.24 101.53,-226.77 226.77,-226.77 125.24,0 226.76,101.53 226.76,226.77 0,125.23 -101.52,226.76 -226.76,226.76" /><path
             id="path64"
             style="fill:#f47216;fill-opacity:1;fill-rule:evenodd;stroke:none"
             d="m 2768.46,3019.19 c -119.8,0 -216.91,-97.11 -216.91,-216.9 0,-119.8 97.11,-216.91 216.91,-216.91 119.79,0 216.9,97.11 216.9,216.91 0,119.79 -97.11,216.9 -216.9,216.9 z m 0,29.58 c -136.13,0 -246.48,-110.36 -246.48,-246.48 0,-136.13 110.35,-246.49 246.48,-246.49 136.13,0 246.48,110.36 246.48,246.49 0,136.12 -110.35,246.48 -246.48,246.48" /><path
             id="path66"
             style="fill:#f47216;fill-opacity:1;fill-rule:evenodd;stroke:none"
             d="m 2768.46,3038.91 c -130.69,0 -236.63,-105.94 -236.63,-236.62 0,-130.69 105.94,-236.63 236.63,-236.63 130.68,0 236.62,105.94 236.62,236.63 0,130.68 -105.94,236.62 -236.62,236.62 z m 0,29.58 c -147.02,0 -266.21,-119.19 -266.21,-266.2 0,-147.02 119.19,-266.21 266.21,-266.21 147.01,0 266.2,119.19 266.2,266.21 0,147.01 -119.19,266.2 -266.2,266.2" /><path
             id="path68"
             style="fill:#f47216;fill-opacity:1;fill-rule:evenodd;stroke:none"
             d="m 2768.46,3058.63 c -141.58,0 -256.35,-114.77 -256.35,-256.34 0,-141.58 114.77,-256.35 256.35,-256.35 141.57,0 256.34,114.77 256.34,256.35 0,141.57 -114.77,256.34 -256.34,256.34 z m 0,29.57 c -157.91,0 -285.92,-128 -285.92,-285.91 0,-157.91 128.01,-285.92 285.92,-285.92 157.9,0 285.92,128.01 285.92,285.92 0,157.91 -128.02,285.91 -285.92,285.91" /><path
             id="path70"
             style="fill:#f47216;fill-opacity:1;fill-rule:evenodd;stroke:none"
             d="m 2768.46,3078.35 c -152.47,0 -276.07,-123.6 -276.07,-276.06 0,-152.47 123.6,-276.06 276.07,-276.06 152.46,0 276.06,123.59 276.06,276.06 0,152.46 -123.6,276.06 -276.06,276.06 z m 0,29.58 c -168.8,0 -305.64,-136.84 -305.64,-305.64 0,-168.81 136.84,-305.64 305.64,-305.64 168.79,0 305.63,136.83 305.63,305.64 0,168.8 -136.84,305.64 -305.63,305.64" /><path
             id="path72"
             style="fill:#f47216;fill-opacity:1;fill-rule:evenodd;stroke:none"
             d="m 2768.46,3098.07 c -163.36,0 -295.78,-132.43 -295.78,-295.78 0,-163.36 132.42,-295.78 295.78,-295.78 163.35,0 295.78,132.42 295.78,295.78 0,163.35 -132.43,295.78 -295.78,295.78 z m 0,29.57 c -179.69,0 -325.36,-145.66 -325.36,-325.35 0,-179.7 145.67,-325.36 325.36,-325.36 179.69,0 325.35,145.66 325.35,325.36 0,179.69 -145.66,325.35 -325.35,325.35" /><path
             id="path74"
             style="fill:#f47216;fill-opacity:1;fill-rule:evenodd;stroke:none"
             d="m 2768.46,3117.79 c -174.25,0 -315.5,-141.26 -315.5,-315.5 0,-174.25 141.25,-315.5 315.5,-315.5 174.24,0 315.49,141.25 315.49,315.5 0,174.24 -141.25,315.5 -315.49,315.5 z m 0,29.57 c -190.58,0 -345.08,-154.49 -345.08,-345.07 0,-190.58 154.5,-345.08 345.08,-345.08 190.58,0 345.08,154.5 345.08,345.08 0,190.58 -154.5,345.07 -345.08,345.07" /><path
             id="path76"
             style="fill:#f47216;fill-opacity:1;fill-rule:evenodd;stroke:none"
             d="m 2768.46,3137.5 c -185.14,0 -335.22,-150.08 -335.22,-335.21 0,-185.14 150.08,-335.22 335.22,-335.22 185.13,0 335.21,150.08 335.21,335.22 0,185.13 -150.08,335.21 -335.21,335.21 z m 0,29.58 c -201.48,0 -364.8,-163.33 -364.8,-364.79 0,-201.47 163.32,-364.8 364.8,-364.8 201.47,0 364.79,163.33 364.79,364.8 0,201.46 -163.32,364.79 -364.79,364.79" /><path
             id="path78"
             style="fill:#f47216;fill-opacity:1;fill-rule:evenodd;stroke:none"
             d="m 2768.46,3157.22 c -196.03,0 -354.94,-158.91 -354.94,-354.93 0,-196.03 158.91,-354.94 354.94,-354.94 196.02,0 354.93,158.91 354.93,354.94 0,196.02 -158.91,354.93 -354.93,354.93 z m 0,29.58 c -212.37,0 -384.51,-172.16 -384.51,-384.51 0,-212.36 172.14,-384.52 384.51,-384.52 212.36,0 384.51,172.16 384.51,384.52 0,212.35 -172.15,384.51 -384.51,384.51" /><path
             id="path80"
             style="fill:#f47216;fill-opacity:1;fill-rule:evenodd;stroke:none"
             d="m 2768.46,3176.94 c -206.92,0 -374.66,-167.74 -374.66,-374.65 0,-206.92 167.74,-374.66 374.66,-374.66 206.92,0 374.65,167.74 374.65,374.66 0,206.91 -167.73,374.65 -374.65,374.65 z m 0,29.58 c -223.26,0 -404.24,-180.98 -404.24,-404.23 0,-223.25 180.98,-404.24 404.24,-404.24 223.25,0 404.23,180.99 404.23,404.24 0,223.25 -180.98,404.23 -404.23,404.23" /><path
             id="path82"
             style="fill:#f47216;fill-opacity:1;fill-rule:evenodd;stroke:none"
             d="m 2768.46,3196.66 c -217.81,0 -394.38,-176.57 -394.38,-394.37 0,-217.81 176.57,-394.38 394.38,-394.38 217.8,0 394.37,176.57 394.37,394.38 0,217.8 -176.57,394.37 -394.37,394.37 z m 0,29.57 c -234.15,0 -423.95,-189.8 -423.95,-423.94 0,-234.15 189.8,-423.95 423.95,-423.95 234.14,0 423.95,189.8 423.95,423.95 0,234.14 -189.81,423.94 -423.95,423.94" /><path
             id="path84"
             style="fill:#f47216;fill-opacity:1;fill-rule:evenodd;stroke:none"
             d="m 2768.46,3216.38 c -228.7,0 -414.1,-185.4 -414.1,-414.09 0,-228.7 185.4,-414.09 414.1,-414.09 228.69,0 414.09,185.39 414.09,414.09 0,228.69 -185.4,414.09 -414.09,414.09 z m 0,29.58 c -245.03,0 -443.67,-198.64 -443.67,-443.67 0,-245.04 198.64,-443.67 443.67,-443.67 245.03,0 443.67,198.63 443.67,443.67 0,245.03 -198.64,443.67 -443.67,443.67" /><path
             id="path86"
             style="fill:#f47216;fill-opacity:1;fill-rule:evenodd;stroke:none"
             d="m 2768.46,3236.1 c -239.59,0 -433.81,-194.23 -433.81,-433.81 0,-239.59 194.22,-433.81 433.81,-433.81 239.58,0 433.81,194.22 433.81,433.81 0,239.58 -194.23,433.81 -433.81,433.81 z m 0,29.57 c -255.92,0 -463.39,-207.46 -463.39,-463.38 0,-255.93 207.47,-463.39 463.39,-463.39 255.92,0 463.38,207.46 463.38,463.39 0,255.92 -207.46,463.38 -463.38,463.38" /><path
             id="path88"
             style="fill:#f47216;fill-opacity:1;fill-rule:evenodd;stroke:none"
             d="m 2768.46,3255.82 c -250.48,0 -453.53,-203.06 -453.53,-453.53 0,-250.48 203.05,-453.53 453.53,-453.53 250.47,0 453.52,203.05 453.52,453.53 0,250.47 -203.05,453.53 -453.52,453.53 z m 0,29.57 c -266.82,0 -483.11,-216.29 -483.11,-483.1 0,-266.82 216.29,-483.11 483.11,-483.11 266.81,0 483.1,216.29 483.1,483.11 0,266.81 -216.29,483.1 -483.1,483.1" /><path
             id="path90"
             style="fill:#f47216;fill-opacity:1;fill-rule:evenodd;stroke:none"
             d="m 2768.46,3275.53 c -261.37,0 -473.25,-211.88 -473.25,-473.24 0,-261.37 211.88,-473.25 473.25,-473.25 261.36,0 473.24,211.88 473.24,473.25 0,261.36 -211.88,473.24 -473.24,473.24 z m 0,29.58 c -277.71,0 -502.83,-225.12 -502.83,-502.82 0,-277.71 225.12,-502.83 502.83,-502.83 277.7,0 502.82,225.12 502.82,502.83 0,277.7 -225.12,502.82 -502.82,502.82" /><path
             id="path92"
             style="fill:#f47216;fill-opacity:1;fill-rule:evenodd;stroke:none"
             d="m 2768.46,3295.25 c -272.26,0 -492.97,-220.71 -492.97,-492.96 0,-272.26 220.71,-492.97 492.97,-492.97 272.25,0 492.96,220.71 492.96,492.97 0,272.25 -220.71,492.96 -492.96,492.96 z m 0,29.58 c -288.6,0 -522.55,-233.95 -522.55,-522.54 0,-288.6 233.95,-522.55 522.55,-522.55 288.59,0 522.54,233.95 522.54,522.55 0,288.59 -233.95,522.54 -522.54,522.54" /><path
             id="path94"
             style="fill:#f47216;fill-opacity:1;fill-rule:evenodd;stroke:none"
             d="m 2768.46,3314.97 c -283.15,0 -512.69,-229.54 -512.69,-512.68 0,-283.15 229.54,-512.69 512.69,-512.69 283.15,0 512.68,229.54 512.68,512.69 0,283.14 -229.53,512.68 -512.68,512.68 z m 0,29.58 c -299.49,0 -542.26,-242.78 -542.26,-542.26 0,-299.49 242.77,-542.27 542.26,-542.27 299.48,0 542.26,242.78 542.26,542.27 0,299.48 -242.78,542.26 -542.26,542.26" /><path
             id="path96"
             style="fill:#f47216;fill-opacity:1;fill-rule:evenodd;stroke:none"
             d="m 2768.46,3334.69 c -294.04,0 -532.41,-238.37 -532.41,-532.4 0,-294.04 238.37,-532.41 532.41,-532.41 294.03,0 532.4,238.37 532.4,532.41 0,294.03 -238.37,532.4 -532.4,532.4 z m 0,29.58 c -310.38,0 -561.98,-251.61 -561.98,-561.98 0,-310.38 251.6,-561.99 561.98,-561.99 310.37,0 561.98,251.61 561.98,561.99 0,310.37 -251.61,561.98 -561.98,561.98" /><path
             id="path98"
             style="fill:#f47216;fill-opacity:1;fill-rule:evenodd;stroke:none"
             d="m 2768.46,3354.41 c -304.93,0 -552.12,-247.2 -552.12,-552.12 0,-304.93 247.19,-552.13 552.12,-552.13 304.92,0 552.12,247.2 552.12,552.13 0,304.92 -247.2,552.12 -552.12,552.12 z m 0,29.57 c -321.26,0 -581.7,-260.43 -581.7,-581.69 0,-321.27 260.44,-581.7 581.7,-581.7 321.26,0 581.7,260.43 581.7,581.7 0,321.26 -260.44,581.69 -581.7,581.69" /><path
             id="path100"
             style="fill:#f47216;fill-opacity:1;fill-rule:evenodd;stroke:none"
             d="m 2768.46,3374.13 c -315.82,0 -571.84,-256.02 -571.84,-571.84 0,-315.83 256.02,-571.84 571.84,-571.84 315.81,0 571.84,256.01 571.84,571.84 0,315.82 -256.03,571.84 -571.84,571.84 z m 0,29.57 c -332.16,0 -601.42,-269.26 -601.42,-601.41 0,-332.16 269.26,-601.42 601.42,-601.42 332.15,0 601.42,269.26 601.42,601.42 0,332.15 -269.27,601.41 -601.42,601.41" /><path
             id="path102"
             style="fill:#f47216;fill-opacity:1;fill-rule:evenodd;stroke:none"
             d="m 2768.46,3393.84 c -326.71,0 -591.57,-264.84 -591.57,-591.55 0,-326.72 264.86,-591.56 591.57,-591.56 326.7,0 591.56,264.84 591.56,591.56 0,326.71 -264.86,591.55 -591.56,591.55 z m 0,29.58 c -343.05,0 -621.14,-278.09 -621.14,-621.13 0,-343.05 278.09,-621.14 621.14,-621.14 343.04,0 621.13,278.09 621.13,621.14 0,343.04 -278.09,621.13 -621.13,621.13" /><path
             id="path104"
             style="fill:#f47216;fill-opacity:1;fill-rule:evenodd;stroke:none"
             d="m 2768.46,3413.56 c -337.6,0 -611.28,-273.67 -611.28,-611.27 0,-337.6 273.68,-611.28 611.28,-611.28 337.59,0 611.27,273.68 611.27,611.28 0,337.6 -273.68,611.27 -611.27,611.27 z m 0,29.58 c -353.94,0 -640.86,-286.92 -640.86,-640.85 0,-353.94 286.92,-640.86 640.86,-640.86 353.93,0 640.85,286.92 640.85,640.86 0,353.93 -286.92,640.85 -640.85,640.85" /><path
             id="path106"
             style="fill:#f47216;fill-opacity:1;fill-rule:evenodd;stroke:none"
             d="m 2768.46,3433.29 c -348.49,0 -631,-282.52 -631,-631 0,-348.49 282.51,-631 631,-631 348.49,0 630.99,282.51 630.99,631 0,348.48 -282.5,631 -630.99,631 z m 0,29.57 c -364.83,0 -660.58,-295.75 -660.58,-660.57 0,-364.83 295.75,-660.58 660.58,-660.58 364.82,0 660.57,295.75 660.57,660.58 0,364.82 -295.75,660.57 -660.57,660.57" /><path
             id="path108"
             style="fill:#f47216;fill-opacity:1;fill-rule:evenodd;stroke:none"
             d="m 2768.46,3453 c -359.38,0 -650.72,-291.34 -650.72,-650.71 0,-359.38 291.34,-650.72 650.72,-650.72 359.38,0 650.71,291.34 650.71,650.72 0,359.37 -291.33,650.71 -650.71,650.71 z m 0,29.58 c -375.72,0 -680.3,-304.58 -680.3,-680.29 0,-375.72 304.58,-680.3 680.3,-680.3 375.71,0 680.29,304.58 680.29,680.3 0,375.71 -304.58,680.29 -680.29,680.29" /><path
             id="path110"
             style="fill:#f47216;fill-opacity:1;fill-rule:evenodd;stroke:none"
             d="m 2768.46,3472.72 c -370.27,0 -670.44,-300.17 -670.44,-670.43 0,-370.27 300.17,-670.44 670.44,-670.44 370.27,0 670.43,300.17 670.43,670.44 0,370.26 -300.16,670.43 -670.43,670.43 z m 0,29.58 c -386.61,0 -700.01,-313.41 -700.01,-700.01 0,-386.61 313.4,-700.01 700.01,-700.01 386.6,0 700.01,313.4 700.01,700.01 0,386.6 -313.41,700.01 -700.01,700.01" /><path
             id="path112"
             style="fill:#f47216;fill-opacity:1;fill-rule:evenodd;stroke:none"
             d="m 2768.46,3492.44 c -381.16,0 -690.16,-308.99 -690.16,-690.15 0,-381.16 309,-690.16 690.16,-690.16 381.16,0 690.15,309 690.15,690.16 0,381.16 -308.99,690.15 -690.15,690.15 z m 0,29.58 c -397.5,0 -719.73,-322.24 -719.73,-719.73 0,-397.5 322.23,-719.74 719.73,-719.74 397.49,0 719.73,322.24 719.73,719.74 0,397.49 -322.24,719.73 -719.73,719.73" /><path
             id="path114"
             style="fill:#f47216;fill-opacity:1;fill-rule:evenodd;stroke:none"
             d="m 2768.46,3512.16 c -392.05,0 -709.87,-317.82 -709.87,-709.87 0,-392.06 317.82,-709.88 709.87,-709.88 392.05,0 709.87,317.82 709.87,709.88 0,392.05 -317.82,709.87 -709.87,709.87 z m 0,29.57 c -408.39,0 -739.45,-331.06 -739.45,-739.44 0,-408.39 331.06,-739.45 739.45,-739.45 408.38,0 739.44,331.06 739.44,739.45 0,408.38 -331.06,739.44 -739.44,739.44" /><path
             id="path116"
             style="fill:#f47216;fill-opacity:1;fill-rule:evenodd;stroke:none"
             d="m 2768.46,3531.88 c -402.94,0 -729.59,-326.65 -729.59,-729.59 0,-402.95 326.65,-729.59 729.59,-729.59 402.94,0 729.59,326.64 729.59,729.59 0,402.94 -326.65,729.59 -729.59,729.59 z m 0,29.57 c -419.28,0 -759.17,-339.89 -759.17,-759.16 0,-419.28 339.89,-759.17 759.17,-759.17 419.27,0 759.17,339.89 759.17,759.17 0,419.27 -339.9,759.16 -759.17,759.16" /><path
             id="path118"
             style="fill:#f47216;fill-opacity:1;fill-rule:evenodd;stroke:none"
             d="m 2768.46,3551.59 c -413.83,0 -749.31,-335.47 -749.31,-749.3 0,-413.83 335.48,-749.31 749.31,-749.31 413.83,0 749.31,335.48 749.31,749.31 0,413.83 -335.48,749.3 -749.31,749.3 z m 0,29.58 c -430.17,0 -778.89,-348.72 -778.89,-778.88 0,-430.17 348.72,-778.89 778.89,-778.89 430.17,0 778.88,348.72 778.88,778.89 0,430.16 -348.71,778.88 -778.88,778.88" /><path
             id="path120"
             style="fill:#f47216;fill-opacity:1;fill-rule:evenodd;stroke:none"
             d="m 2768.46,3571.31 c -424.73,0 -769.03,-344.3 -769.03,-769.02 0,-424.72 344.3,-769.03 769.03,-769.03 424.72,0 769.02,344.31 769.02,769.03 0,424.72 -344.3,769.02 -769.02,769.02 z m 0,29.58 c -441.06,0 -798.61,-357.55 -798.61,-798.6 0,-441.06 357.55,-798.61 798.61,-798.61 441.05,0 798.6,357.55 798.6,798.61 0,441.05 -357.55,798.6 -798.6,798.6" /><path
             id="path122"
             style="fill:#f47216;fill-opacity:1;fill-rule:evenodd;stroke:none"
             d="m 2768.46,3591.03 c -435.62,0 -788.75,-353.13 -788.75,-788.74 0,-435.61 353.13,-788.75 788.75,-788.75 435.61,0 788.74,353.14 788.74,788.75 0,435.61 -353.13,788.74 -788.74,788.74 z m 0,29.58 c -451.95,0 -818.33,-366.38 -818.33,-818.32 0,-451.95 366.38,-818.33 818.33,-818.33 451.94,0 818.32,366.38 818.32,818.33 0,451.94 -366.38,818.32 -818.32,818.32" /><path
             id="path124"
             style="fill:#f47216;fill-opacity:1;fill-rule:evenodd;stroke:none"
             d="m 2768.46,3610.75 c -446.51,0 -808.47,-361.96 -808.47,-808.46 0,-446.5 361.96,-808.47 808.47,-808.47 446.5,0 808.46,361.97 808.46,808.47 0,446.5 -361.96,808.46 -808.46,808.46 z m 0,29.58 c -462.84,0 -838.05,-375.2 -838.05,-838.04 0,-462.84 375.21,-838.04 838.05,-838.04 462.83,0 838.04,375.2 838.04,838.04 0,462.84 -375.21,838.04 -838.04,838.04" /><path
             id="path126"
             style="fill:#f47216;fill-opacity:1;fill-rule:evenodd;stroke:none"
             d="m 2768.46,3630.47 c -457.4,0 -828.19,-370.79 -828.19,-828.18 0,-457.4 370.79,-828.18 828.19,-828.18 457.39,0 828.18,370.78 828.18,828.18 0,457.39 -370.79,828.18 -828.18,828.18 z m 0,29.58 c -473.73,0 -857.76,-384.03 -857.76,-857.76 0,-473.73 384.03,-857.77 857.76,-857.77 473.72,0 857.75,384.04 857.75,857.77 0,473.73 -384.03,857.76 -857.75,857.76" /><path
             id="path128"
             style="fill:#f47216;fill-opacity:1;fill-rule:evenodd;stroke:none"
             d="m 2768.46,3650.19 c -468.28,0 -847.91,-379.62 -847.91,-847.9 0,-468.29 379.63,-847.91 847.91,-847.91 468.28,0 847.9,379.62 847.9,847.91 0,468.28 -379.62,847.9 -847.9,847.9 z m 0,29.58 c -484.62,0 -877.48,-392.86 -877.48,-877.48 0,-484.63 392.86,-877.48 877.48,-877.48 484.61,0 877.47,392.85 877.47,877.48 0,484.62 -392.86,877.48 -877.47,877.48" /><path
             id="path130"
             style="fill:#f47216;fill-opacity:1;fill-rule:evenodd;stroke:none"
             d="m 2768.46,3669.91 c -479.17,0 -867.62,-388.45 -867.62,-867.62 0,-479.18 388.45,-867.63 867.62,-867.63 479.17,0 867.61,388.45 867.61,867.63 0,479.17 -388.44,867.62 -867.61,867.62 z m 0,29.57 c -495.51,0 -897.2,-401.68 -897.2,-897.19 0,-495.51 401.69,-897.2 897.2,-897.2 495.5,0 897.2,401.69 897.2,897.2 0,495.51 -401.7,897.19 -897.2,897.19" /><path
             id="path132"
             style="fill:#f47216;fill-opacity:1;fill-rule:evenodd;stroke:none"
             d="m 2768.46,3689.63 c -490.07,0 -887.34,-397.28 -887.34,-887.34 0,-490.07 397.27,-887.34 887.34,-887.34 490.06,0 887.34,397.27 887.34,887.34 0,490.06 -397.28,887.34 -887.34,887.34 z m 0,29.57 c -506.4,0 -916.92,-410.52 -916.92,-916.91 0,-506.4 410.52,-916.92 916.92,-916.92 506.4,0 916.91,410.52 916.91,916.92 0,506.39 -410.51,916.91 -916.91,916.91" /><path
             id="path134"
             style="fill:#f47216;fill-opacity:1;fill-rule:evenodd;stroke:none"
             d="m 2768.46,3709.34 c -500.96,0 -907.06,-406.1 -907.06,-907.05 0,-500.96 406.1,-907.06 907.06,-907.06 500.95,0 907.06,406.1 907.06,907.06 0,500.95 -406.11,907.05 -907.06,907.05 z m 0,29.58 c -517.29,0 -936.64,-419.35 -936.64,-936.63 0,-517.29 419.35,-936.64 936.64,-936.64 517.29,0 936.63,419.35 936.63,936.64 0,517.28 -419.34,936.63 -936.63,936.63" /><path
             id="path136"
             style="fill:#f47216;fill-opacity:1;fill-rule:evenodd;stroke:none"
             d="m 2768.46,3729.06 c -511.85,0 -926.78,-414.93 -926.78,-926.77 0,-511.85 414.93,-926.78 926.78,-926.78 511.84,0 926.77,414.93 926.77,926.78 0,511.84 -414.93,926.77 -926.77,926.77 z m 0,29.58 c -528.18,0 -956.36,-428.18 -956.36,-956.35 0,-528.18 428.18,-956.36 956.36,-956.36 528.18,0 956.35,428.18 956.35,956.36 0,528.17 -428.17,956.35 -956.35,956.35" /><path
             id="path138"
             style="fill:#f47216;fill-opacity:1;fill-rule:evenodd;stroke:none"
             d="m 2768.46,3748.78 c -522.74,0 -946.5,-423.76 -946.5,-946.49 0,-522.74 423.76,-946.5 946.5,-946.5 522.73,0 946.49,423.76 946.49,946.5 0,522.73 -423.76,946.49 -946.49,946.49 z m 0,29.58 c -539.07,0 -976.07,-437 -976.07,-976.07 0,-539.08 437,-976.08 976.07,-976.08 539.07,0 976.07,437 976.07,976.08 0,539.07 -437,976.07 -976.07,976.07" /><path
             id="path140"
             style="fill:#f47216;fill-opacity:1;fill-rule:evenodd;stroke:none"
             d="m 2768.46,3768.5 c -533.63,0 -966.22,-432.59 -966.22,-966.21 0,-533.63 432.59,-966.22 966.22,-966.22 533.62,0 966.21,432.59 966.21,966.22 0,533.62 -432.59,966.21 -966.21,966.21 z m 0,29.58 c -549.96,0 -995.8,-445.83 -995.8,-995.79 0,-549.97 445.84,-995.79 995.8,-995.79 549.96,0 995.79,445.82 995.79,995.79 0,549.96 -445.83,995.79 -995.79,995.79" /><path
             id="path142"
             style="fill:#f47216;fill-opacity:1;fill-rule:evenodd;stroke:none"
             d="m 2768.46,3788.22 c -544.52,0 -985.93,-441.42 -985.93,-985.93 0,-544.52 441.41,-985.94 985.93,-985.94 544.51,0 985.93,441.42 985.93,985.94 0,544.51 -441.42,985.93 -985.93,985.93 z m 0,29.57 c -560.85,0 -1015.51,-454.65 -1015.51,-1015.5 0,-560.85 454.66,-1015.51 1015.51,-1015.51 560.85,0 1015.51,454.66 1015.51,1015.51 0,560.85 -454.66,1015.5 -1015.51,1015.5" /><path
             id="path144"
             style="fill:#f47216;fill-opacity:1;fill-rule:evenodd;stroke:none"
             d="m 2768.46,3807.93 c -555.41,0 -1005.66,-450.24 -1005.66,-1005.64 0,-555.41 450.25,-1005.65 1005.66,-1005.65 555.4,0 1005.65,450.24 1005.65,1005.65 0,555.4 -450.25,1005.64 -1005.65,1005.64 z m 0,29.59 c -571.75,0 -1035.23,-463.49 -1035.23,-1035.23 0,-571.74 463.48,-1035.23 1035.23,-1035.23 571.74,0 1035.22,463.49 1035.22,1035.23 0,571.74 -463.48,1035.23 -1035.22,1035.23" /><path
             id="path146"
             style="fill:#f47216;fill-opacity:1;fill-rule:evenodd;stroke:none"
             d="m 2768.46,3827.65 c -566.3,0 -1025.37,-459.07 -1025.37,-1025.36 0,-566.3 459.07,-1025.37 1025.37,-1025.37 566.29,0 1025.37,459.07 1025.37,1025.37 0,566.29 -459.08,1025.36 -1025.37,1025.36 z m 0,29.58 c -582.64,0 -1054.95,-472.32 -1054.95,-1054.94 0,-582.63 472.31,-1054.95 1054.95,-1054.95 582.63,0 1054.94,472.32 1054.94,1054.95 0,582.62 -472.31,1054.94 -1054.94,1054.94" /><path
             id="path148"
             style="fill:#f47216;fill-opacity:1;fill-rule:evenodd;stroke:none"
             d="m 2768.46,3847.38 c -577.19,0 -1045.09,-467.91 -1045.09,-1045.09 0,-577.19 467.9,-1045.09 1045.09,-1045.09 577.18,0 1045.08,467.9 1045.08,1045.09 0,577.18 -467.9,1045.09 -1045.08,1045.09 z m 0,29.57 c -593.53,0 -1074.67,-481.15 -1074.67,-1074.66 0,-593.52 481.14,-1074.67 1074.67,-1074.67 593.52,0 1074.66,481.15 1074.66,1074.67 0,593.51 -481.14,1074.66 -1074.66,1074.66" /><path
             id="path150"
             style="fill:#f47216;fill-opacity:1;fill-rule:evenodd;stroke:none"
             d="m 2768.46,3867.09 c -588.08,0 -1064.81,-476.73 -1064.81,-1064.8 0,-588.08 476.73,-1064.81 1064.81,-1064.81 588.08,0 1064.8,476.73 1064.8,1064.81 0,588.07 -476.72,1064.8 -1064.8,1064.8 z m 0,29.58 c -604.42,0 -1094.39,-489.97 -1094.39,-1094.38 0,-604.41 489.97,-1094.39 1094.39,-1094.39 604.41,0 1094.38,489.98 1094.38,1094.39 0,604.41 -489.97,1094.38 -1094.38,1094.38" /><path
             id="path152"
             style="fill:#f47216;fill-opacity:1;fill-rule:evenodd;stroke:none"
             d="m 2768.46,3886.81 c -598.97,0 -1084.53,-485.56 -1084.53,-1084.52 0,-598.97 485.56,-1084.53 1084.53,-1084.53 598.96,0 1084.52,485.56 1084.52,1084.53 0,598.96 -485.56,1084.52 -1084.52,1084.52 z m 0,29.58 c -615.31,0 -1114.1,-498.8 -1114.1,-1114.1 0,-615.31 498.79,-1114.11 1114.1,-1114.11 615.3,0 1114.1,498.8 1114.1,1114.11 0,615.3 -498.8,1114.1 -1114.1,1114.1" /><path
             id="path154"
             style="fill:#f47216;fill-opacity:1;fill-rule:evenodd;stroke:none"
             d="m 2768.46,3906.53 c -609.86,0 -1104.25,-494.39 -1104.25,-1104.24 0,-609.86 494.39,-1104.25 1104.25,-1104.25 609.85,0 1104.24,494.39 1104.24,1104.25 0,609.85 -494.39,1104.24 -1104.24,1104.24 z m 0,29.58 c -626.19,0 -1133.83,-507.63 -1133.83,-1133.82 0,-626.2 507.64,-1133.83 1133.83,-1133.83 626.19,0 1133.82,507.63 1133.82,1133.83 0,626.19 -507.63,1133.82 -1133.82,1133.82" /><path
             id="path156"
             style="fill:#f47216;fill-opacity:1;fill-rule:evenodd;stroke:none"
             d="m 2768.46,3926.25 c -620.75,0 -1123.97,-503.21 -1123.97,-1123.96 0,-620.75 503.22,-1123.97 1123.97,-1123.97 620.74,0 1123.96,503.22 1123.96,1123.97 0,620.75 -503.22,1123.96 -1123.96,1123.96 z m 0,29.57 c -637.08,0 -1153.54,-516.45 -1153.54,-1153.53 0,-637.09 516.46,-1153.54 1153.54,-1153.54 637.08,0 1153.54,516.45 1153.54,1153.54 0,637.08 -516.46,1153.53 -1153.54,1153.53" /><path
             id="path158"
             style="fill:#f47216;fill-opacity:1;fill-rule:evenodd;stroke:none"
             d="m 2768.46,3945.96 c -631.64,0 -1143.69,-512.03 -1143.69,-1143.67 0,-631.64 512.05,-1143.68 1143.69,-1143.68 631.63,0 1143.68,512.04 1143.68,1143.68 0,631.64 -512.05,1143.67 -1143.68,1143.67 z m 0,29.59 c -647.98,0 -1173.26,-525.29 -1173.26,-1173.26 0,-647.98 525.28,-1173.26 1173.26,-1173.26 647.97,0 1173.25,525.28 1173.25,1173.26 0,647.97 -525.28,1173.26 -1173.25,1173.26" /><path
             id="path160"
             style="fill:#f47216;fill-opacity:1;fill-rule:evenodd;stroke:none"
             d="m 2768.46,3965.69 c -642.53,0 -1163.4,-520.87 -1163.4,-1163.4 0,-642.53 520.87,-1163.4 1163.4,-1163.4 642.52,0 1163.4,520.87 1163.4,1163.4 0,642.53 -520.88,1163.4 -1163.4,1163.4 z m 0,29.57 c -658.87,0 -1192.98,-534.11 -1192.98,-1192.97 0,-658.87 534.11,-1192.98 1192.98,-1192.98 658.86,0 1192.97,534.11 1192.97,1192.98 0,658.86 -534.11,1192.97 -1192.97,1192.97" /><path
             id="path162"
             style="fill:#f47315;fill-opacity:1;fill-rule:evenodd;stroke:none"
             d="m 2768.46,3985.41 c -653.42,0 -1183.12,-529.71 -1183.12,-1183.12 0,-653.42 529.7,-1183.12 1183.12,-1183.12 653.42,0 1183.11,529.7 1183.11,1183.12 0,653.41 -529.69,1183.12 -1183.11,1183.12 z m 0,29.57 c -669.76,0 -1212.7,-542.94 -1212.7,-1212.69 0,-669.76 542.94,-1212.7 1212.7,-1212.7 669.75,0 1212.69,542.94 1212.69,1212.7 0,669.75 -542.94,1212.69 -1212.69,1212.69" /><path
             id="path164"
             style="fill:#f47415;fill-opacity:1;fill-rule:evenodd;stroke:none"
             d="m 2768.46,4005.12 c -664.31,0 -1202.84,-538.53 -1202.84,-1202.83 0,-664.31 538.53,-1202.84 1202.84,-1202.84 664.31,0 1202.83,538.53 1202.83,1202.84 0,664.3 -538.52,1202.83 -1202.83,1202.83 z m 0,29.58 c -680.65,0 -1232.42,-551.77 -1232.42,-1232.41 0,-680.65 551.77,-1232.42 1232.42,-1232.42 680.64,0 1232.41,551.77 1232.41,1232.42 0,680.64 -551.77,1232.41 -1232.41,1232.41" /><path
             id="path166"
             style="fill:#f57615;fill-opacity:1;fill-rule:evenodd;stroke:none"
             d="m 2768.46,4024.84 c -675.2,0 -1222.56,-547.36 -1222.56,-1222.55 0,-675.2 547.36,-1222.56 1222.56,-1222.56 675.19,0 1222.55,547.36 1222.55,1222.56 0,675.19 -547.36,1222.55 -1222.55,1222.55 z m 0,29.58 c -691.54,0 -1252.14,-560.6 -1252.14,-1252.13 0,-691.54 560.6,-1252.14 1252.14,-1252.14 691.53,0 1252.13,560.6 1252.13,1252.14 0,691.53 -560.6,1252.13 -1252.13,1252.13" /><path
             id="path168"
             style="fill:#f57814;fill-opacity:1;fill-rule:evenodd;stroke:none"
             d="m 2768.46,4044.56 c -686.09,0 -1242.28,-556.18 -1242.28,-1242.27 0,-686.09 556.19,-1242.28 1242.28,-1242.28 686.08,0 1242.27,556.19 1242.27,1242.28 0,686.09 -556.19,1242.27 -1242.27,1242.27 z m 0,29.58 c -702.42,0 -1271.85,-569.43 -1271.85,-1271.85 0,-702.43 569.43,-1271.86 1271.85,-1271.86 702.42,0 1271.85,569.43 1271.85,1271.86 0,702.42 -569.43,1271.85 -1271.85,1271.85" /><path
             id="path170"
             style="fill:#f57a14;fill-opacity:1;fill-rule:evenodd;stroke:none"
             d="m 2768.46,4064.28 c -696.98,0 -1262,-565.01 -1262,-1261.99 0,-696.99 565.02,-1262 1262,-1262 696.97,0 1261.99,565.01 1261.99,1262 0,696.98 -565.02,1261.99 -1261.99,1261.99 z m 0,29.58 c -713.32,0 -1291.57,-578.26 -1291.57,-1291.57 0,-713.32 578.25,-1291.58 1291.57,-1291.58 713.31,0 1291.57,578.26 1291.57,1291.58 0,713.31 -578.26,1291.57 -1291.57,1291.57" /><path
             id="path172"
             style="fill:#f57c14;fill-opacity:1;fill-rule:evenodd;stroke:none"
             d="m 2768.46,4084 c -707.87,0 -1281.71,-573.84 -1281.71,-1281.71 0,-707.88 573.84,-1281.72 1281.71,-1281.72 707.86,0 1281.71,573.84 1281.71,1281.72 0,707.87 -573.85,1281.71 -1281.71,1281.71 z m 0,29.57 c -724.21,0 -1311.29,-587.08 -1311.29,-1311.28 0,-724.21 587.08,-1311.29 1311.29,-1311.29 724.2,0 1311.29,587.08 1311.29,1311.29 0,724.2 -587.09,1311.28 -1311.29,1311.28" /><path
             id="path174"
             style="fill:#f57d14;fill-opacity:1;fill-rule:evenodd;stroke:none"
             d="m 2768.46,4103.71 c -718.76,0 -1301.43,-582.66 -1301.43,-1301.42 0,-718.76 582.67,-1301.43 1301.43,-1301.43 718.76,0 1301.43,582.67 1301.43,1301.43 0,718.76 -582.67,1301.42 -1301.43,1301.42 z m 0,29.58 c -735.1,0 -1331.01,-595.91 -1331.01,-1331 0,-735.1 595.91,-1331.01 1331.01,-1331.01 735.09,0 1331,595.91 1331,1331.01 0,735.09 -595.91,1331 -1331,1331" /><path
             id="path176"
             style="fill:#f58013;fill-opacity:1;fill-rule:evenodd;stroke:none"
             d="m 2768.46,4123.43 c -729.66,0 -1321.16,-591.5 -1321.16,-1321.14 0,-729.65 591.5,-1321.15 1321.16,-1321.15 729.65,0 1321.15,591.5 1321.15,1321.15 0,729.64 -591.5,1321.14 -1321.15,1321.14 z m 0,29.58 c -745.99,0 -1350.73,-604.74 -1350.73,-1350.72 0,-745.99 604.74,-1350.73 1350.73,-1350.73 745.98,0 1350.72,604.74 1350.72,1350.73 0,745.98 -604.74,1350.72 -1350.72,1350.72" /><path
             id="path178"
             style="fill:#f68213;fill-opacity:1;fill-rule:evenodd;stroke:none"
             d="m 2768.46,4143.15 c -740.55,0 -1340.87,-600.33 -1340.87,-1340.86 0,-740.54 600.32,-1340.87 1340.87,-1340.87 740.54,0 1340.86,600.33 1340.86,1340.87 0,740.53 -600.32,1340.86 -1340.86,1340.86 z m 0,29.58 c -756.88,0 -1370.45,-613.57 -1370.45,-1370.44 0,-756.88 613.57,-1370.45 1370.45,-1370.45 756.87,0 1370.44,613.57 1370.44,1370.45 0,756.87 -613.57,1370.44 -1370.44,1370.44" /><path
             id="path180"
             style="fill:#f68313;fill-opacity:1;fill-rule:evenodd;stroke:none"
             d="m 2768.46,4162.88 c -751.44,0 -1360.59,-609.17 -1360.59,-1360.59 0,-751.43 609.15,-1360.59 1360.59,-1360.59 751.43,0 1360.58,609.16 1360.58,1360.59 0,751.42 -609.15,1360.59 -1360.58,1360.59 z m 0,29.57 c -767.77,0 -1390.17,-622.4 -1390.17,-1390.16 0,-767.77 622.4,-1390.17 1390.17,-1390.17 767.76,0 1390.16,622.4 1390.16,1390.17 0,767.76 -622.4,1390.16 -1390.16,1390.16" /><path
             id="path182"
             style="fill:#f68512;fill-opacity:1;fill-rule:evenodd;stroke:none"
             d="m 2768.46,4182.59 c -762.33,0 -1380.31,-617.98 -1380.31,-1380.3 0,-762.33 617.98,-1380.31 1380.31,-1380.31 762.32,0 1380.3,617.98 1380.3,1380.31 0,762.32 -617.98,1380.3 -1380.3,1380.3 z m 0,29.58 c -778.66,0 -1409.89,-631.23 -1409.89,-1409.88 0,-778.66 631.23,-1409.89 1409.89,-1409.89 778.65,0 1409.88,631.23 1409.88,1409.89 0,778.65 -631.23,1409.88 -1409.88,1409.88" /><path
             id="path184"
             style="fill:#f68712;fill-opacity:1;fill-rule:evenodd;stroke:none"
             d="m 2768.46,4202.31 c -773.21,0 -1400.03,-626.81 -1400.03,-1400.02 0,-773.22 626.82,-1400.03 1400.03,-1400.03 773.21,0 1400.02,626.81 1400.02,1400.03 0,773.21 -626.81,1400.02 -1400.02,1400.02 z m 0,29.58 c -789.55,0 -1429.6,-640.06 -1429.6,-1429.6 0,-789.55 640.05,-1429.6 1429.6,-1429.6 789.54,0 1429.6,640.05 1429.6,1429.6 0,789.54 -640.06,1429.6 -1429.6,1429.6" /><path
             id="path186"
             style="fill:#f68912;fill-opacity:1;fill-rule:evenodd;stroke:none"
             d="m 2768.46,4222.03 c -784.1,0 -1419.75,-635.64 -1419.75,-1419.74 0,-784.11 635.65,-1419.75 1419.75,-1419.75 784.1,0 1419.74,635.64 1419.74,1419.75 0,784.1 -635.64,1419.74 -1419.74,1419.74 z m 0,29.58 c -800.44,0 -1449.32,-648.89 -1449.32,-1449.32 0,-800.44 648.88,-1449.33 1449.32,-1449.33 800.43,0 1449.32,648.89 1449.32,1449.33 0,800.43 -648.89,1449.32 -1449.32,1449.32" /><path
             id="path188"
             style="fill:#f68b11;fill-opacity:1;fill-rule:evenodd;stroke:none"
             d="m 2768.46,4241.75 c -795,0 -1439.46,-644.47 -1439.46,-1439.46 0,-794.99 644.46,-1439.47 1439.46,-1439.47 794.99,0 1439.46,644.48 1439.46,1439.47 0,794.99 -644.47,1439.46 -1439.46,1439.46 z m 0,29.57 c -811.33,0 -1469.04,-657.71 -1469.04,-1469.03 0,-811.33 657.71,-1469.04 1469.04,-1469.04 811.33,0 1469.03,657.71 1469.03,1469.04 0,811.32 -657.7,1469.03 -1469.03,1469.03" /><path
             id="path190"
             style="fill:#f78d11;fill-opacity:1;fill-rule:evenodd;stroke:none"
             d="m 2768.46,4261.46 c -805.89,0 -1459.18,-653.29 -1459.18,-1459.17 0,-805.89 653.29,-1459.18 1459.18,-1459.18 805.88,0 1459.18,653.29 1459.18,1459.18 0,805.88 -653.3,1459.17 -1459.18,1459.17 z m 0,29.58 c -822.22,0 -1488.76,-666.54 -1488.76,-1488.75 0,-822.22 666.54,-1488.76 1488.76,-1488.76 822.21,0 1488.75,666.54 1488.75,1488.76 0,822.21 -666.54,1488.75 -1488.75,1488.75" /><path
             id="path192"
             style="fill:#f78f11;fill-opacity:1;fill-rule:evenodd;stroke:none"
             d="m 2768.46,4281.18 c -816.78,0 -1478.9,-662.12 -1478.9,-1478.89 0,-816.78 662.12,-1478.9 1478.9,-1478.9 816.77,0 1478.9,662.12 1478.9,1478.9 0,816.77 -662.13,1478.89 -1478.9,1478.89 z m 0,29.58 c -833.11,0 -1508.48,-675.37 -1508.48,-1508.47 0,-833.11 675.37,-1508.48 1508.48,-1508.48 833.1,0 1508.47,675.37 1508.47,1508.48 0,833.1 -675.37,1508.47 -1508.47,1508.47" /><path
             id="path194"
             style="fill:#f79110;fill-opacity:1;fill-rule:evenodd;stroke:none"
             d="m 2768.46,4300.9 c -827.67,0 -1498.62,-670.95 -1498.62,-1498.61 0,-827.67 670.95,-1498.62 1498.62,-1498.62 827.66,0 1498.61,670.95 1498.61,1498.62 0,827.66 -670.95,1498.61 -1498.61,1498.61 z m 0,29.58 c -844,0 -1528.2,-684.19 -1528.2,-1528.19 0,-844 684.2,-1528.2 1528.2,-1528.2 843.99,0 1528.19,684.2 1528.19,1528.2 0,844 -684.2,1528.19 -1528.19,1528.19" /><path
             id="path196"
             style="fill:#f79210;fill-opacity:1;fill-rule:evenodd;stroke:none"
             d="m 2768.46,4320.62 c -838.56,0 -1518.34,-679.78 -1518.34,-1518.33 0,-838.56 679.78,-1518.34 1518.34,-1518.34 838.55,0 1518.33,679.78 1518.33,1518.34 0,838.55 -679.78,1518.33 -1518.33,1518.33 z m 0,29.58 c -854.89,0 -1547.92,-693.02 -1547.92,-1547.91 0,-854.9 693.03,-1547.91 1547.92,-1547.91 854.88,0 1547.91,693.01 1547.91,1547.91 0,854.89 -693.03,1547.91 -1547.91,1547.91" /><path
             id="path198"
             style="fill:#f79510;fill-opacity:1;fill-rule:evenodd;stroke:none"
             d="m 2768.46,4340.34 c -849.44,0 -1538.06,-688.61 -1538.06,-1538.05 0,-849.45 688.62,-1538.06 1538.06,-1538.06 849.44,0 1538.05,688.61 1538.05,1538.06 0,849.44 -688.61,1538.05 -1538.05,1538.05 z m 0,29.58 c -865.78,0 -1567.64,-701.85 -1567.64,-1567.63 0,-865.78 701.86,-1567.63 1567.64,-1567.63 865.77,0 1567.63,701.85 1567.63,1567.63 0,865.78 -701.86,1567.63 -1567.63,1567.63" /><path
             id="path200"
             style="fill:#f7970f;fill-opacity:1;fill-rule:evenodd;stroke:none"
             d="m 2768.46,4360.05 c -860.33,0 -1557.78,-697.43 -1557.78,-1557.76 0,-860.34 697.45,-1557.77 1557.78,-1557.77 860.33,0 1557.77,697.43 1557.77,1557.77 0,860.33 -697.44,1557.76 -1557.77,1557.76 z m 0,29.59 c -876.67,0 -1587.35,-710.68 -1587.35,-1587.35 0,-876.67 710.68,-1587.36 1587.35,-1587.36 876.67,0 1587.34,710.69 1587.34,1587.36 0,876.67 -710.67,1587.35 -1587.34,1587.35" /><path
             id="path202"
             style="fill:#f7980f;fill-opacity:1;fill-rule:evenodd;stroke:none"
             d="m 2768.46,4379.78 c -871.23,0 -1577.5,-706.27 -1577.5,-1577.49 0,-871.23 706.27,-1577.5 1577.5,-1577.5 871.22,0 1577.49,706.27 1577.49,1577.5 0,871.22 -706.27,1577.49 -1577.49,1577.49 z m 0,29.58 c -887.56,0 -1607.07,-719.52 -1607.07,-1607.07 0,-887.56 719.51,-1607.07 1607.07,-1607.07 887.56,0 1607.06,719.51 1607.06,1607.07 0,887.55 -719.5,1607.07 -1607.06,1607.07" /><path
             id="path204"
             style="fill:#f89a0f;fill-opacity:1;fill-rule:evenodd;stroke:none"
             d="m 2768.46,4399.5 c -882.12,0 -1597.21,-715.1 -1597.21,-1597.21 0,-882.12 715.09,-1597.22 1597.21,-1597.22 882.11,0 1597.2,715.1 1597.2,1597.22 0,882.11 -715.09,1597.21 -1597.2,1597.21 z m 0,29.57 c -898.45,0 -1626.79,-728.34 -1626.79,-1626.78 0,-898.45 728.34,-1626.79 1626.79,-1626.79 898.45,0 1626.79,728.34 1626.79,1626.79 0,898.44 -728.34,1626.78 -1626.79,1626.78" /><path
             id="path206"
             style="fill:#f89c0e;fill-opacity:1;fill-rule:evenodd;stroke:none"
             d="m 2768.46,4419.21 c -893.01,0 -1616.93,-723.92 -1616.93,-1616.92 0,-893.01 723.92,-1616.93 1616.93,-1616.93 893,0 1616.93,723.92 1616.93,1616.93 0,893 -723.93,1616.92 -1616.93,1616.92 z m 0,29.58 c -909.34,0 -1646.51,-737.16 -1646.51,-1646.5 0,-909.34 737.17,-1646.51 1646.51,-1646.51 909.34,0 1646.5,737.17 1646.5,1646.51 0,909.34 -737.16,1646.5 -1646.5,1646.5" /><path
             id="path208"
             style="fill:#f89e0e;fill-opacity:1;fill-rule:evenodd;stroke:none"
             d="m 2768.46,4438.93 c -903.9,0 -1636.65,-732.75 -1636.65,-1636.64 0,-903.9 732.75,-1636.65 1636.65,-1636.65 903.89,0 1636.64,732.75 1636.64,1636.65 0,903.89 -732.75,1636.64 -1636.64,1636.64 z m 0,29.58 c -920.23,0 -1666.23,-745.99 -1666.23,-1666.22 0,-920.24 746,-1666.23 1666.23,-1666.23 920.23,0 1666.22,745.99 1666.22,1666.23 0,920.23 -745.99,1666.22 -1666.22,1666.22" /><path
             id="path210"
             style="fill:#f8a00e;fill-opacity:1;fill-rule:evenodd;stroke:none"
             d="m 2768.46,4458.65 c -914.79,0 -1656.37,-741.58 -1656.37,-1656.36 0,-914.79 741.58,-1656.37 1656.37,-1656.37 914.78,0 1656.36,741.58 1656.36,1656.37 0,914.78 -741.58,1656.36 -1656.36,1656.36 z m 0,29.58 c -931.12,0 -1685.95,-754.82 -1685.95,-1685.94 0,-931.13 754.83,-1685.95 1685.95,-1685.95 931.12,0 1685.94,754.82 1685.94,1685.95 0,931.12 -754.82,1685.94 -1685.94,1685.94" /><path
             id="path212"
             style="fill:#f8a20d;fill-opacity:1;fill-rule:evenodd;stroke:none"
             d="m 2768.46,4478.37 c -925.68,0 -1676.09,-750.41 -1676.09,-1676.08 0,-925.68 750.41,-1676.09 1676.09,-1676.09 925.67,0 1676.08,750.41 1676.08,1676.09 0,925.67 -750.41,1676.08 -1676.08,1676.08 z m 0,29.58 c -942.01,0 -1705.66,-763.65 -1705.66,-1705.66 0,-942.01 763.65,-1705.67 1705.66,-1705.67 942.01,0 1705.66,763.66 1705.66,1705.67 0,942.01 -763.65,1705.66 -1705.66,1705.66" /><path
             id="path214"
             style="fill:#f8a40d;fill-opacity:1;fill-rule:evenodd;stroke:none"
             d="m 2768.46,4498.09 c -936.57,0 -1695.8,-759.24 -1695.8,-1695.8 0,-936.57 759.23,-1695.81 1695.8,-1695.81 936.56,0 1695.8,759.24 1695.8,1695.81 0,936.56 -759.24,1695.8 -1695.8,1695.8 z m 0,29.58 c -952.91,0 -1725.39,-772.48 -1725.39,-1725.38 0,-952.9 772.48,-1725.38 1725.39,-1725.38 952.9,0 1725.38,772.48 1725.38,1725.38 0,952.9 -772.48,1725.38 -1725.38,1725.38" /><path
             id="path216"
             style="fill:#f9a60d;fill-opacity:1;fill-rule:evenodd;stroke:none"
             d="m 2768.46,4517.81 c -947.46,0 -1715.52,-768.07 -1715.52,-1715.52 0,-947.46 768.06,-1715.53 1715.52,-1715.53 947.45,0 1715.52,768.07 1715.52,1715.53 0,947.45 -768.07,1715.52 -1715.52,1715.52 z m 0,29.57 c -963.8,0 -1745.1,-781.3 -1745.1,-1745.09 0,-963.79 781.3,-1745.1 1745.1,-1745.1 963.79,0 1745.1,781.31 1745.1,1745.1 0,963.79 -781.31,1745.09 -1745.1,1745.09" /><path
             id="path218"
             style="fill:#f9a70d;fill-opacity:1;fill-rule:evenodd;stroke:none"
             d="m 2768.46,4537.52 c -958.35,0 -1735.25,-776.89 -1735.25,-1735.23 0,-958.35 776.9,-1735.24 1735.25,-1735.24 958.34,0 1735.24,776.89 1735.24,1735.24 0,958.34 -776.9,1735.23 -1735.24,1735.23 z m 0,29.59 c -974.69,0 -1764.82,-790.14 -1764.82,-1764.82 0,-974.68 790.13,-1764.82 1764.82,-1764.82 974.68,0 1764.81,790.14 1764.81,1764.82 0,974.68 -790.13,1764.82 -1764.81,1764.82" /><path
             id="path220"
             style="fill:#f9aa0c;fill-opacity:1;fill-rule:evenodd;stroke:none"
             d="m 2768.46,4557.24 c -969.24,0 -1754.96,-785.72 -1754.96,-1754.95 0,-969.24 785.72,-1754.96 1754.96,-1754.96 969.24,0 1754.96,785.72 1754.96,1754.96 0,969.23 -785.72,1754.95 -1754.96,1754.95 z m 0,29.58 c -985.58,0 -1784.538,-798.96 -1784.538,-1784.53 0,-985.58 798.958,-1784.54 1784.538,-1784.54 985.57,0 1784.53,798.96 1784.53,1784.54 0,985.57 -798.96,1784.53 -1784.53,1784.53" /><path
             id="path222"
             style="fill:#f9ac0c;fill-opacity:1;fill-rule:evenodd;stroke:none"
             d="m 2768.46,4576.96 c -980.13,0 -1774.679,-794.55 -1774.679,-1774.67 0,-980.13 794.549,-1774.68 1774.679,-1774.68 980.12,0 1774.67,794.55 1774.67,1774.68 0,980.12 -794.55,1774.67 -1774.67,1774.67 z m 0,29.58 c -996.47,0 -1804.261,-807.79 -1804.261,-1804.25 0,-996.47 807.791,-1804.259 1804.261,-1804.259 996.46,0 1804.25,807.789 1804.25,1804.259 0,996.46 -807.79,1804.25 -1804.25,1804.25" /><path
             id="path224"
             style="fill:#f9ad0c;fill-opacity:1;fill-rule:evenodd;stroke:none"
             d="m 2768.46,4596.68 c -991.02,0 -1794.401,-803.38 -1794.401,-1794.39 0,-991.02 803.381,-1794.4 1794.401,-1794.4 991.01,0 1794.39,803.38 1794.39,1794.4 0,991.01 -803.38,1794.39 -1794.39,1794.39 z m 0,29.58 c -1007.35,0 -1823.976,-816.62 -1823.976,-1823.97 0,-1007.36 816.626,-1823.977 1823.976,-1823.977 1007.35,0 1823.97,816.617 1823.97,1823.977 0,1007.35 -816.62,1823.97 -1823.97,1823.97" /><path
             id="path226"
             style="fill:#f9af0b;fill-opacity:1;fill-rule:evenodd;stroke:none"
             d="m 2768.46,4616.4 c -1001.91,0 -1814.116,-812.2 -1814.116,-1814.11 0,-1001.91 812.206,-1814.118 1814.116,-1814.118 1001.9,0 1814.11,812.208 1814.11,1814.118 0,1001.91 -812.21,1814.11 -1814.11,1814.11 z m 0,29.58 c -1018.25,0 -1843.694,-825.45 -1843.694,-1843.69 0,-1018.25 825.444,-1843.696 1843.694,-1843.696 1018.24,0 1843.69,825.446 1843.69,1843.696 0,1018.24 -825.45,1843.69 -1843.69,1843.69" /><path
             id="path228"
             style="fill:#fab10b;fill-opacity:1;fill-rule:evenodd;stroke:none"
             d="m 2768.46,4636.12 c -1012.8,0 -1833.835,-821.03 -1833.835,-1833.83 0,-1012.8 821.035,-1833.837 1833.835,-1833.837 1012.79,0 1833.83,821.037 1833.83,1833.837 0,1012.8 -821.04,1833.83 -1833.83,1833.83 z m 0,29.58 c -1029.14,0 -1863.417,-834.28 -1863.417,-1863.41 0,-1029.14 834.277,-1863.415 1863.417,-1863.415 1029.13,0 1863.41,834.275 1863.41,1863.415 0,1029.13 -834.28,1863.41 -1863.41,1863.41" /><path
             id="path230"
             style="fill:#fab30b;fill-opacity:1;fill-rule:evenodd;stroke:none"
             d="m 2768.46,4655.84 c -1023.69,0 -1853.554,-829.86 -1853.554,-1853.55 0,-1023.69 829.864,-1853.556 1853.554,-1853.556 1023.68,0 1853.55,829.866 1853.55,1853.556 0,1023.69 -829.87,1853.55 -1853.55,1853.55 z m 0,29.57 c -1040.03,0 -1883.132,-843.1 -1883.132,-1883.12 0,-1040.03 843.102,-1883.134 1883.132,-1883.134 1040.02,0 1883.13,843.104 1883.13,1883.134 0,1040.02 -843.11,1883.12 -1883.13,1883.12" /><path
             id="path232"
             style="fill:#fab50a;fill-opacity:1;fill-rule:evenodd;stroke:none"
             d="m 2768.46,4675.55 c -1034.58,0 -1873.276,-838.69 -1873.276,-1873.26 0,-1034.58 838.696,-1873.274 1873.276,-1873.274 1034.58,0 1873.27,838.694 1873.27,1873.274 0,1034.57 -838.69,1873.26 -1873.27,1873.26 z m 0,29.59 c -1050.92,0 -1902.851,-851.94 -1902.851,-1902.85 0,-1050.92 851.931,-1902.852 1902.851,-1902.852 1050.91,0 1902.84,851.932 1902.84,1902.852 0,1050.91 -851.93,1902.85 -1902.84,1902.85" /><path
             id="path234"
             style="fill:#fab70a;fill-opacity:1;fill-rule:evenodd;stroke:none"
             d="m 2768.46,4695.28 c -1045.47,0 -1892.991,-847.53 -1892.991,-1892.99 0,-1045.47 847.521,-1892.993 1892.991,-1892.993 1045.47,0 1892.99,847.523 1892.99,1892.993 0,1045.46 -847.52,1892.99 -1892.99,1892.99 z m 0,29.57 c -1061.81,0 -1922.573,-860.76 -1922.573,-1922.56 0,-1061.81 860.763,-1922.571 1922.573,-1922.571 1061.8,0 1922.56,860.761 1922.56,1922.571 0,1061.8 -860.76,1922.56 -1922.56,1922.56" /><path
             id="path236"
             style="fill:#fab90a;fill-opacity:1;fill-rule:evenodd;stroke:none"
             d="M 2768.46,4715 C 1712.1,4715 855.75,3858.64 855.75,2802.29 c 0,-1056.36 856.35,-1912.712 1912.71,-1912.712 1056.36,0 1912.7,856.352 1912.7,1912.712 0,1056.35 -856.34,1912.71 -1912.7,1912.71 z m 0,29.57 C 1695.76,4744.57 826.172,3874.98 826.172,2802.29 826.172,1729.59 1695.76,860 2768.46,860 c 1072.69,0 1942.28,869.59 1942.28,1942.29 0,1072.69 -869.59,1942.28 -1942.28,1942.28" /><path
             id="path238"
             style="fill:#fabb09;fill-opacity:1;fill-rule:evenodd;stroke:none"
             d="m 2768.46,4734.71 c -1067.25,0 -1932.429,-865.17 -1932.429,-1932.42 0,-1067.25 865.179,-1932.431 1932.429,-1932.431 1067.25,0 1932.42,865.181 1932.42,1932.431 0,1067.25 -865.17,1932.42 -1932.42,1932.42 z m 0,29.58 c -1083.59,0 -1962.007,-878.42 -1962.007,-1962 0,-1083.59 878.417,-1962.009 1962.007,-1962.009 1083.58,0 1962,878.419 1962,1962.009 0,1083.58 -878.42,1962 -1962,1962" /><path
             id="path240"
             style="fill:#fabc09;fill-opacity:1;fill-rule:evenodd;stroke:none"
             d="m 2768.46,4754.43 c -1078.14,0 -1952.147,-874 -1952.147,-1952.14 0,-1078.15 874.007,-1952.149 1952.147,-1952.149 1078.14,0 1952.14,873.999 1952.14,1952.149 0,1078.14 -874,1952.14 -1952.14,1952.14 z m 0,29.58 c -1094.48,0 -1981.726,-887.25 -1981.726,-1981.72 0,-1094.48 887.246,-1981.727 1981.726,-1981.727 1094.47,0 1981.72,887.247 1981.72,1981.727 0,1094.47 -887.25,1981.72 -1981.72,1981.72" /><path
             id="path242"
             style="fill:#fbbf09;fill-opacity:1;fill-rule:evenodd;stroke:none"
             d="m 2768.46,4774.15 c -1089.03,0 -1971.866,-882.83 -1971.866,-1971.86 0,-1089.04 882.836,-1971.868 1971.866,-1971.868 1089.03,0 1971.86,882.828 1971.86,1971.868 0,1089.03 -882.83,1971.86 -1971.86,1971.86 z m 0,29.58 c -1105.37,0 -2001.444,-896.08 -2001.444,-2001.44 0,-1105.37 896.074,-2001.446 2001.444,-2001.446 1105.36,0 2001.44,896.076 2001.44,2001.446 0,1105.36 -896.08,2001.44 -2001.44,2001.44" /><path
             id="path244"
             style="fill:#fbc008;fill-opacity:1;fill-rule:evenodd;stroke:none"
             d="m 2768.46,4793.87 c -1099.92,0 -1991.585,-891.66 -1991.585,-1991.58 0,-1099.92 891.665,-1991.587 1991.585,-1991.587 1099.92,0 1991.58,891.667 1991.58,1991.587 0,1099.92 -891.66,1991.58 -1991.58,1991.58 z m 0,29.58 c -1116.26,0 -2021.163,-904.91 -2021.163,-2021.16 0,-1116.26 904.903,-2021.165 2021.163,-2021.165 1116.25,0 2021.16,904.905 2021.16,2021.165 0,1116.25 -904.91,2021.16 -2021.16,2021.16" /><path
             id="path246"
             style="fill:#fbc208;fill-opacity:1;fill-rule:evenodd;stroke:none"
             d="m 2768.46,4813.59 c -1110.82,0 -2011.304,-900.5 -2011.304,-2011.3 0,-1110.81 900.484,-2011.306 2011.304,-2011.306 1110.81,0 2011.3,900.496 2011.3,2011.306 0,1110.8 -900.49,2011.3 -2011.3,2011.3 z m 0,29.57 c -1127.15,0 -2040.882,-913.73 -2040.882,-2040.87 0,-1127.15 913.732,-2040.884 2040.882,-2040.884 1127.14,0 2040.88,913.734 2040.88,2040.884 0,1127.14 -913.74,2040.87 -2040.88,2040.87" /><path
             id="path248"
             style="fill:#fbc408;fill-opacity:1;fill-rule:evenodd;stroke:none"
             d="m 2768.46,4833.3 c -1121.71,0 -2031.022,-909.32 -2031.022,-2031.01 0,-1121.7 909.312,-2031.024 2031.022,-2031.024 1121.7,0 2031.02,909.324 2031.02,2031.024 0,1121.69 -909.32,2031.01 -2031.02,2031.01 z m 0,29.58 c -1138.04,0 -2060.601,-922.56 -2060.601,-2060.59 0,-1138.04 922.561,-2060.602 2060.601,-2060.602 1138.03,0 2060.59,922.562 2060.59,2060.602 0,1138.03 -922.56,2060.59 -2060.59,2060.59" /><path
             id="path250"
             style="fill:#fbc607;fill-opacity:1;fill-rule:evenodd;stroke:none"
             d="m 2768.46,4853.02 c -1132.6,0 -2050.741,-918.14 -2050.741,-2050.73 0,-1132.59 918.141,-2050.743 2050.741,-2050.743 1132.59,0 2050.74,918.153 2050.74,2050.743 0,1132.59 -918.15,2050.73 -2050.74,2050.73 z m 0,29.58 c -1148.93,0 -2080.319,-931.39 -2080.319,-2080.31 0,-1148.93 931.389,-2080.321 2080.319,-2080.321 1148.92,0 2080.31,931.391 2080.31,2080.321 0,1148.92 -931.39,2080.31 -2080.31,2080.31" /><path
             id="path252"
             style="fill:#fbc807;fill-opacity:1;fill-rule:evenodd;stroke:none"
             d="M 2768.46,4872.74 C 1624.97,4872.74 698,3945.77 698,2802.29 698,1658.8 1624.97,731.828 2768.46,731.828 c 1143.48,0 2070.45,926.972 2070.45,2070.462 0,1143.48 -926.97,2070.45 -2070.45,2070.45 z m 0,29.58 c -1159.82,0 -2100.038,-940.21 -2100.038,-2100.03 0,-1159.82 940.218,-2100.036 2100.038,-2100.036 1159.81,0 2100.03,940.216 2100.03,2100.036 0,1159.82 -940.22,2100.03 -2100.03,2100.03" /><path
             id="path254"
             style="fill:#fcca07;fill-opacity:1;fill-rule:evenodd;stroke:none"
             d="m 2768.46,4892.46 c -1154.37,0 -2090.179,-935.8 -2090.179,-2090.17 0,-1154.38 935.809,-2090.177 2090.179,-2090.177 1154.37,0 2090.17,935.797 2090.17,2090.177 0,1154.37 -935.8,2090.17 -2090.17,2090.17 z m 0,29.58 c -1170.71,0 -2119.757,-949.05 -2119.757,-2119.75 0,-1170.71 949.047,-2119.759 2119.757,-2119.759 1170.7,0 2119.75,949.049 2119.75,2119.759 0,1170.7 -949.05,2119.75 -2119.75,2119.75" /><path
             id="path256"
             style="fill:#fccc06;fill-opacity:1;fill-rule:evenodd;stroke:none"
             d="m 2768.46,4912.18 c -1165.26,0 -2109.897,-944.63 -2109.897,-2109.89 0,-1165.27 944.637,-2109.899 2109.897,-2109.899 1165.26,0 2109.89,944.629 2109.89,2109.899 0,1165.26 -944.63,2109.89 -2109.89,2109.89 z m 0,29.58 c -1181.6,0 -2139.476,-957.88 -2139.476,-2139.47 0,-1181.6 957.876,-2139.477 2139.476,-2139.477 1181.59,0 2139.47,957.877 2139.47,2139.477 0,1181.59 -957.88,2139.47 -2139.47,2139.47" /><path
             id="path258"
             style="fill:#fcce06;fill-opacity:1;fill-rule:evenodd;stroke:none"
             d="M 2768.46,4931.9 C 1592.3,4931.9 638.844,3978.44 638.844,2802.29 638.844,1626.13 1592.3,672.672 2768.46,672.672 c 1176.15,0 2129.61,953.458 2129.61,2129.618 0,1176.15 -953.46,2129.61 -2129.61,2129.61 z m 0,29.58 c -1192.49,0 -2159.194,-966.71 -2159.194,-2159.19 0,-1192.49 966.704,-2159.192 2159.194,-2159.192 1192.49,0 2159.19,966.702 2159.19,2159.192 0,1192.48 -966.7,2159.19 -2159.19,2159.19" /><path
             id="path260"
             style="fill:#fcd006;fill-opacity:1;fill-rule:evenodd;stroke:none"
             d="m 2768.46,4951.62 c -1187.05,0 -2149.335,-962.29 -2149.335,-2149.33 0,-1187.05 962.285,-2149.333 2149.335,-2149.333 1187.04,0 2149.33,962.283 2149.33,2149.333 0,1187.04 -962.29,2149.33 -2149.33,2149.33 z m 0,29.58 c -1203.38,0 -2178.913,-975.54 -2178.913,-2178.91 0,-1203.38 975.533,-2178.915 2178.913,-2178.915 1203.37,0 2178.91,975.535 2178.91,2178.915 0,1203.37 -975.54,2178.91 -2178.91,2178.91" /><path
             id="path262"
             style="fill:#fcd106;fill-opacity:1;fill-rule:evenodd;stroke:none"
             d="m 2768.46,4971.34 c -1197.94,0 -2169.054,-971.12 -2169.054,-2169.05 0,-1197.94 971.114,-2169.052 2169.054,-2169.052 1197.93,0 2169.05,971.112 2169.05,2169.052 0,1197.93 -971.12,2169.05 -2169.05,2169.05 z m 0,29.57 c -1214.27,0 -2198.632,-984.36 -2198.632,-2198.62 0,-1214.27 984.362,-2198.634 2198.632,-2198.634 1214.26,0 2198.62,984.364 2198.62,2198.634 0,1214.26 -984.36,2198.62 -2198.62,2198.62" /><path
             id="path264"
             style="fill:#fcd405;fill-opacity:1;fill-rule:evenodd;stroke:none"
             d="m 2768.46,4991.05 c -1208.83,0 -2188.772,-979.94 -2188.772,-2188.76 0,-1208.83 979.942,-2188.774 2188.772,-2188.774 1208.82,0 2188.76,979.944 2188.76,2188.774 0,1208.82 -979.94,2188.76 -2188.76,2188.76 z m 0,29.58 c -1225.16,0 -2218.351,-993.18 -2218.351,-2218.34 0,-1225.16 993.191,-2218.349 2218.351,-2218.349 1225.15,0 2218.34,993.189 2218.34,2218.349 0,1225.16 -993.19,2218.34 -2218.34,2218.34" /><path
             id="path266"
             style="fill:#fdd505;fill-opacity:1;fill-rule:evenodd;stroke:none"
             d="M 2768.46,5010.77 C 1548.74,5010.77 559.969,4022 559.969,2802.29 c 0,-1219.72 988.771,-2208.493 2208.491,-2208.493 1219.71,0 2208.48,988.773 2208.48,2208.493 0,1219.71 -988.77,2208.48 -2208.48,2208.48 z m 0,29.58 c -1236.05,0 -2238.069,-1002.01 -2238.069,-2238.06 0,-1236.06 1002.019,-2238.067 2238.069,-2238.067 1236.05,0 2238.06,1002.007 2238.06,2238.067 0,1236.05 -1002.01,2238.06 -2238.06,2238.06" /><path
             id="path268"
             style="fill:#fdd705;fill-opacity:1;fill-rule:evenodd;stroke:none"
             d="m 2768.46,5030.49 c -1230.6,0 -2228.21,-997.6 -2228.21,-2228.2 0,-1230.61 997.61,-2228.208 2228.21,-2228.208 1230.6,0 2228.2,997.598 2228.2,2228.208 0,1230.6 -997.6,2228.2 -2228.2,2228.2 z m 0,29.58 C 1521.52,5060.07 510.672,4049.23 510.672,2802.29 510.672,1555.35 1521.52,544.5 2768.46,544.5 c 1246.93,0 2257.78,1010.85 2257.78,2257.79 0,1246.94 -1010.85,2257.78 -2257.78,2257.78" /><path
             id="path270"
             style="fill:#fdd904;fill-opacity:1;fill-rule:evenodd;stroke:none"
             d="m 2768.46,5050.21 c -1241.5,0 -2247.925,-1006.43 -2247.925,-2247.92 0,-1241.5 1006.425,-2247.931 2247.925,-2247.931 1241.49,0 2247.92,1006.431 2247.92,2247.931 0,1241.49 -1006.43,2247.92 -2247.92,2247.92 z m 0,29.58 c -1257.83,0 -2277.507,-1019.68 -2277.507,-2277.5 0,-1257.83 1019.677,-2277.505 2277.507,-2277.505 1257.83,0 2277.5,1019.675 2277.5,2277.505 0,1257.82 -1019.67,2277.5 -2277.5,2277.5" /><path
             id="path272"
             style="fill:#fddb04;fill-opacity:1;fill-rule:evenodd;stroke:none"
             d="M 2768.46,5069.93 C 1516.07,5069.93 500.813,4054.67 500.813,2802.29 500.813,1549.9 1516.07,534.641 2768.46,534.641 c 1252.38,0 2267.64,1015.259 2267.64,2267.649 0,1252.38 -1015.26,2267.64 -2267.64,2267.64 z m 0,29.58 C 1499.73,5099.51 471.234,4071 471.234,2802.29 471.234,1533.57 1499.73,505.066 2768.46,505.066 c 1268.72,0 2297.22,1028.504 2297.22,2297.224 0,1268.71 -1028.5,2297.22 -2297.22,2297.22" /><path
             id="path274"
             style="fill:#fddd04;fill-opacity:1;fill-rule:evenodd;stroke:none"
             d="m 2768.46,5089.64 c -1263.28,0 -2287.366,-1024.08 -2287.366,-2287.35 0,-1263.28 1024.086,-2287.364 2287.366,-2287.364 1263.27,0 2287.36,1024.084 2287.36,2287.364 0,1263.27 -1024.09,2287.35 -2287.36,2287.35 z m 0,29.59 c -1279.62,0 -2316.94,-1037.34 -2316.94,-2316.94 0,-1279.61 1037.32,-2316.946 2316.94,-2316.946 1279.61,0 2316.93,1037.336 2316.93,2316.946 0,1279.6 -1037.32,2316.94 -2316.93,2316.94" /><path
             id="path276"
             style="fill:#fddf03;fill-opacity:1;fill-rule:evenodd;stroke:none"
             d="m 2768.46,5109.37 c -1274.17,0 -2307.081,-1032.92 -2307.081,-2307.08 0,-1274.17 1032.911,-2307.087 2307.081,-2307.087 1274.16,0 2307.08,1032.917 2307.08,2307.087 0,1274.16 -1032.92,2307.08 -2307.08,2307.08 z m 0,29.58 c -1290.51,0 -2336.663,-1046.16 -2336.663,-2336.66 0,-1290.5 1046.153,-2336.661 2336.663,-2336.661 1290.5,0 2336.65,1046.161 2336.65,2336.661 0,1290.5 -1046.15,2336.66 -2336.65,2336.66" /><path
             id="path278"
             style="fill:#fee103;fill-opacity:1;fill-rule:evenodd;stroke:none"
             d="M 2768.46,5129.09 C 1483.4,5129.09 441.656,4087.34 441.656,2802.29 441.656,1517.23 1483.4,475.488 2768.46,475.488 c 1285.05,0 2326.79,1041.742 2326.79,2326.802 0,1285.05 -1041.74,2326.8 -2326.79,2326.8 z m 0,29.57 c -1301.39,0 -2356.382,-1054.98 -2356.382,-2356.37 0,-1301.4 1054.992,-2356.38 2356.382,-2356.38 1301.39,0 2356.38,1054.98 2356.38,2356.38 0,1301.39 -1054.99,2356.37 -2356.38,2356.37" /><path
             id="path280"
             style="fill:#fee303;fill-opacity:1;fill-rule:evenodd;stroke:none"
             d="M 2768.46,5148.8 C 1472.51,5148.8 421.938,4098.23 421.938,2802.29 421.938,1506.34 1472.51,455.77 2768.46,455.77 c 1295.94,0 2346.52,1050.57 2346.52,2346.52 0,1295.94 -1050.58,2346.51 -2346.52,2346.51 z m 0,29.58 C 1456.18,5178.38 392.363,4114.57 392.363,2802.29 392.363,1490 1456.18,426.188 2768.46,426.188 c 1312.28,0 2376.09,1063.812 2376.09,2376.102 0,1312.28 -1063.81,2376.09 -2376.09,2376.09" /><path
             id="path282"
             style="fill:#fee502;fill-opacity:1;fill-rule:evenodd;stroke:none"
             d="m 2768.46,5168.52 c -1306.84,0 -2366.237,-1059.4 -2366.237,-2366.23 0,-1306.84 1059.397,-2366.239 2366.237,-2366.239 1306.83,0 2366.23,1059.399 2366.23,2366.239 0,1306.83 -1059.4,2366.23 -2366.23,2366.23 z m 0,29.58 C 1445.29,5198.1 372.641,4125.46 372.641,2802.29 372.641,1479.12 1445.29,406.473 2768.46,406.473 c 1323.17,0 2395.81,1072.647 2395.81,2395.817 0,1323.17 -1072.64,2395.81 -2395.81,2395.81" /><path
             id="path284"
             style="fill:#fee602;fill-opacity:1;fill-rule:evenodd;stroke:none"
             d="m 2768.46,5188.24 c -1317.73,0 -2385.956,-1068.23 -2385.956,-2385.95 0,-1317.73 1068.226,-2385.958 2385.956,-2385.958 1317.72,0 2385.95,1068.228 2385.95,2385.958 0,1317.72 -1068.23,2385.95 -2385.95,2385.95 z m 0,29.58 c -1334.07,0 -2415.538,-1081.47 -2415.538,-2415.53 0,-1334.06 1081.468,-2415.536 2415.538,-2415.536 1334.06,0 2415.53,1081.476 2415.53,2415.536 0,1334.06 -1081.47,2415.53 -2415.53,2415.53" /><path
             id="path286"
             style="fill:#fee902;fill-opacity:1;fill-rule:evenodd;stroke:none"
             d="M 2768.46,5207.96 C 1439.84,5207.96 362.781,4130.9 362.781,2802.29 362.781,1473.67 1439.84,396.613 2768.46,396.613 c 1328.61,0 2405.67,1077.057 2405.67,2405.677 0,1328.61 -1077.06,2405.67 -2405.67,2405.67 z m 0,29.58 C 1423.5,5237.54 333.207,4147.24 333.207,2802.29 333.207,1457.34 1423.5,367.035 2768.46,367.035 c 1344.95,0 2435.25,1090.305 2435.25,2435.255 0,1344.95 -1090.3,2435.25 -2435.25,2435.25" /><path
             id="path288"
             style="fill:#feea01;fill-opacity:1;fill-rule:evenodd;stroke:none"
             d="m 2768.46,5227.68 c -1339.51,0 -2425.394,-1085.89 -2425.394,-2425.39 0,-1339.51 1085.884,-2425.395 2425.394,-2425.395 1339.5,0 2425.39,1085.885 2425.39,2425.395 0,1339.5 -1085.89,2425.39 -2425.39,2425.39 z m 0,29.58 c -1355.85,0 -2454.976,-1099.13 -2454.976,-2454.97 0,-1355.85 1099.126,-2454.974 2454.976,-2454.974 1355.84,0 2454.97,1099.124 2454.97,2454.974 0,1355.84 -1099.13,2454.97 -2454.97,2454.97" /><path
             id="path290"
             style="fill:#ffec01;fill-opacity:1;fill-rule:evenodd;stroke:none"
             d="m 2768.46,5247.4 c -1350.4,0 -2445.112,-1094.72 -2445.112,-2445.11 0,-1350.4 1094.712,-2445.114 2445.112,-2445.114 1350.39,0 2445.11,1094.714 2445.11,2445.114 0,1350.39 -1094.72,2445.11 -2445.11,2445.11 z m 0,29.57 c -1366.74,0 -2474.694,-1107.95 -2474.694,-2474.68 0,-1366.74 1107.954,-2474.692 2474.694,-2474.692 1366.73,0 2474.68,1107.952 2474.68,2474.692 0,1366.73 -1107.95,2474.68 -2474.68,2474.68" /><path
             id="path292"
             style="fill:#ffee01;fill-opacity:1;fill-rule:evenodd;stroke:none"
             d="M 2768.46,5267.11 C 1407.17,5267.11 303.625,4163.57 303.625,2802.29 303.625,1441 1407.17,337.457 2768.46,337.457 c 1361.28,0 2464.83,1103.543 2464.83,2464.833 0,1361.28 -1103.55,2464.82 -2464.83,2464.82 z m 0,29.59 C 1390.84,5296.7 274.051,4179.91 274.051,2802.29 274.051,1424.66 1390.84,307.879 2768.46,307.879 c 1377.62,0 2494.4,1116.781 2494.4,2494.411 0,1377.62 -1116.78,2494.41 -2494.4,2494.41" /><path
             id="path294"
             style="fill:#fff000;fill-opacity:1;fill-rule:evenodd;stroke:none"
             d="M 2768.46,5286.83 C 1396.28,5286.83 283.91,4174.46 283.91,2802.29 283.91,1430.11 1396.28,317.738 2768.46,317.738 4140.63,317.738 5253,1430.11 5253,2802.29 5253,4174.46 4140.63,5286.83 2768.46,5286.83 Z m 0,29.58 C 1379.95,5316.41 254.332,4190.8 254.332,2802.29 254.332,1413.77 1379.95,288.16 2768.46,288.16 c 1388.51,0 2514.12,1125.61 2514.12,2514.13 0,1388.51 -1125.61,2514.12 -2514.12,2514.12" /><path
             id="path296"
             style="fill:#fff200;fill-opacity:1;fill-rule:evenodd;stroke:none"
             d="m 2768.46,5306.55 c -1383.07,0 -2504.269,-1121.19 -2504.269,-2504.26 0,-1383.08 1121.199,-2504.27 2504.269,-2504.27 1383.06,0 2504.26,1121.19 2504.26,2504.27 0,1383.07 -1121.2,2504.26 -2504.26,2504.26 z m 0,19.72 C 1374.5,5326.27 244.469,4196.25 244.469,2802.29 244.469,1408.33 1374.5,278.301 2768.46,278.301 c 1393.95,0 2523.98,1130.029 2523.98,2523.989 0,1393.96 -1130.03,2523.98 -2523.98,2523.98" /></g></g><path
         id="path298"
         style="fill:#f47216;fill-opacity:1;fill-rule:nonzero;stroke:none"
         d="m 713.516,2091.83 c 2.988,51.02 4.675,106.75 19.57,165.35 -35.633,2.2 -71.746,11.06 -114.656,7.93 -120.153,-8.77 -196.969,-112.15 -190.985,-194.16 5.149,-70.57 56.633,-106.11 115.91,-156.43 37.786,-31.76 58.684,-68.57 61.262,-103.86 5.285,-72.47 -65.64,-151.46 -154.32,-157.93 -69.609,-5.09 -85.625,43.59 -100.481,89.48 -5.066,16.9 -21.23,28.18 -37.441,26.99 -20.977,-1.53 -37.496,-24.78 -35.617,-50.53 3.762,-51.49 77.34,-100.76 165.066,-94.37 134.457,9.82 243.016,111.69 234.875,223.26 -3.41,46.73 -20.008,77.15 -77.172,124.74 -24.55,21.22 -67.105,52.62 -91.476,84.4 -8.461,10.89 -14.485,27.7 -16.153,50.59 -4.316,59.12 48.446,124.32 119.965,129.54 45.77,3.35 73.742,-25.29 77.223,-72.97 1.672,-22.89 1.785,-50.68 0.594,-73.77 z m 358.914,-238.09 c -37.03,-86.32 -134.481,-123.99 -156.231,-120.75 -11.347,1.69 -18.027,15.25 -16.195,27.55 7.75,52.01 93.426,198.74 104.696,274.39 3.1,20.81 -4.24,36.41 -20.313,38.8 -36.883,5.5 -90.469,-23.25 -160.25,-69.88 l 17.461,-19.04 c 33.547,24 61.375,42.09 79.343,39.41 6.618,-0.99 8.188,-9.92 7.485,-14.65 -1.27,-8.51 -2.922,-13.1 -6.082,-21.33 -46.172,-121.69 -94.129,-203.47 -102.305,-258.32 -4.367,-29.31 5.668,-46.28 28.367,-49.66 38.77,-5.78 120.907,26.45 186.144,81.49 -7.83,-20.1 -16.08,-43.04 -19.04,-62.89 -4.09,-27.43 11.63,-45.24 29.6,-47.92 26.47,-3.94 78.41,20.21 150.41,75.22 l -12.6,19.27 c -41.29,-30.57 -70.49,-51.36 -85.62,-49.1 -7.57,1.13 -12.25,8.59 -10.56,19.94 2.4,16.08 24.76,68.81 61.65,154.18 l 67.46,154.28 -65.25,9.72 z m 536.62,-39.72 c -18.18,-48.33 -130.99,-158.09 -159.61,-234.16 -12.46,-33.11 -8.46,-55.04 14.81,-63.8 26.85,-10.1 91.21,3.48 162.2,40.11 l -5.02,19.25 c -50.82,-15.61 -81.17,-33.82 -99.07,-27.08 -8.94,3.37 -8.26,13.32 -4.89,22.27 26.93,71.59 147.57,180.45 172.16,245.77 9.76,25.96 3.63,47.67 -19.64,56.43 -33.11,12.46 -131.61,-7.69 -214.01,-50.23 l 52.68,80.29 c 0.67,1.79 5.83,10.06 6.84,12.74 3.7,9.85 -4.79,17.13 -14.64,20.84 -42.95,16.16 -103.51,-0.9 -178.86,-32.82 l 8.26,-21.49 c 44.12,22.22 81.62,29.56 91.45,25.86 7.16,-2.7 6.04,-8.4 4.02,-13.77 -1.35,-3.58 -5.61,-12.19 -7.52,-14.54 l -101.66,-150.73 c -44.62,-66.99 -71.74,-103.77 -78.46,-113.5 l 65.32,-24.58 92.15,139 c 21.18,31.86 37.78,62.4 110.55,90.18 39.29,14.84 73.09,20.51 91.88,13.44 8.95,-3.37 14.09,-11.43 11.06,-19.48 z m 437.74,-292.25 c -30.34,-41.77 -168.22,-117.69 -215.99,-183.44 -20.79,-28.62 -22.75,-50.83 -2.63,-65.45 23.21,-16.85 88.86,-20.83 167.02,-4.34 l 0.27,19.9 c -53.14,-1.58 -87.23,-11.08 -102.7,0.16 -7.73,5.61 -4.44,15.04 1.19,22.77 44.95,61.88 190.14,134.86 231.16,191.33 16.3,22.43 16.15,44.99 -3.97,59.6 -28.62,20.8 -128.93,27.49 -219.67,8.33 l 72.09,63.44 c 1.12,1.54 8.29,8.15 9.98,10.48 6.17,8.5 -0.08,17.78 -8.59,23.96 -37.13,26.98 -100.04,26.59 -181.16,15.79 l 2.26,-22.91 c 48.43,9.72 86.53,6.86 95.04,0.68 6.18,-4.5 3.59,-9.7 0.21,-14.34 -2.24,-3.09 -8.64,-10.27 -11.1,-12.03 l -137.99,-118.37 c -60.78,-52.76 -96.69,-81.03 -105.75,-88.63 l 56.47,-41.02 125.7,109.58 c 28.88,25.11 52.98,50.15 130.51,57.64 41.82,3.89 75.91,0.39 92.16,-11.41 7.74,-5.62 10.55,-14.76 5.49,-21.72 z m 105.62,-87.11 -1.38,-25.42 c 32.88,-1.05 61.12,-8.19 71,-15.73 27.35,-20.9 17.66,-101.32 -45.53,-220.28 -19.05,-35.98 -40.39,-70.21 -62.45,-99.08 -60.35,-79.025 -193.79,-96.212 -238.62,-61.97 -22.04,16.83 -32.73,40.64 -60.08,61.53 -22.04,16.83 -45,15.12 -56.03,0.68 -13.34,-17.47 -5.55,-45.08 25.59,-68.87 89.66,-68.489 250.85,-49.633 465.23,60.93 103.35,53.4 183.73,125.55 213.33,164.31 17.99,23.55 18.38,46.12 0.14,60.04 -13.68,10.45 -31.86,8.7 -42.89,-5.74 -17.99,-23.56 -22.48,-56.22 -43.95,-84.33 -38.31,-50.15 -108.29,-92.94 -203.52,-135.71 8.31,9.3 14.29,15.55 21.84,25.43 98.08,128.42 127.19,308.3 102.88,326.87 -13.68,10.45 -48.66,11.9 -103.7,15.44 l -41.86,1.9" /><path
         id="path300"
         style="fill:#f47216;fill-opacity:1;fill-rule:nonzero;stroke:none"
         d="m 3523.17,1448.79 c -33.83,38.32 -71.9,79.05 -102.62,131.14 -26.83,-23.55 -58.71,-42.7 -86.95,-75.16 -79.09,-90.88 -60.76,-218.36 1.27,-272.34 53.37,-46.45 114.95,-35.4 192.47,-29.35 49.18,4.08 89.96,-7.32 116.64,-30.54 54.81,-47.7 60.14,-153.74 1.76,-220.806 -45.82,-52.648 -91.48,-29.39 -134.35,-7.285 -15.5,8.41 -34.92,5.031 -45.59,-7.23 -13.81,-15.864 -9.14,-44.008 10.33,-60.953 38.94,-33.895 125.87,-17.024 183.62,49.328 88.51,101.696 93.77,250.476 9.39,323.916 -35.34,30.76 -68.56,40.65 -142.65,34.15 -32.38,-2.24 -84.7,-9.93 -124.38,-4.55 -13.68,1.76 -29.8,9.45 -47.11,24.51 -44.71,38.92 -53.21,122.36 -6.14,176.46 30.13,34.62 70.16,34 106.22,2.62 17.31,-15.06 36.97,-34.71 52.4,-51.93 z m 80.33,82.2 -48.05,-57.03 20.05,-28.14 48.67,57.76 111.05,-156.08 c 20.78,-28.75 40.21,-57.62 66.53,-79.8 27.05,-22.79 50.3,-24.88 65.71,-6.6 27.1,32.18 32.77,108.65 38.89,219.78 l -27.8,-0.34 c -1.47,-70.02 -13.88,-123.33 -24.35,-135.75 -8.63,-10.24 -18.29,-8.35 -29.99,1.51 -13.89,11.7 -37.98,39.5 -64.22,76.61 l -92.7,131.85 62.84,74.59 -21.28,26.68 -62.22,-73.85 -78,110.71 -26.11,-75.51 z m 512.4,167.76 c -12.61,-69.23 -23.79,-117.54 -48.28,-140.35 -23.79,-22.15 -44.47,-13.98 -71.19,14.71 -10.42,11.19 -21.4,25.78 -29.08,38.24 52.45,124.64 87.49,216.08 34.06,273.45 -26.72,28.68 -59.86,29.18 -92.04,-0.8 -88.15,-82.11 -48.97,-274.27 49.43,-379.92 42.36,-45.47 79.91,-54.92 113.5,-23.64 43.37,40.4 62.78,110.75 69.13,213.35 z m -164.56,-61.81 c -58.48,86.64 -74.71,162.99 -42.53,192.96 17.49,16.3 41.01,12.08 57.96,-6.11 27.37,-29.39 23.71,-94.2 -15.43,-186.85 z m 371.09,-100.96 c 17.56,-62.52 2.24,-82.09 -30.07,-104.62 l 6.23,-22.81 c 38.98,26.27 75.56,49 100.57,63.05 26.67,14.98 62.73,30.84 102.85,51.18 l -6.24,22.82 c -67.57,-28.08 -92.99,-33.59 -106.57,-9.41 -3.74,6.67 -6.4,17.24 -7.9,21.88 l -41.19,153.41 c 20.52,0.56 41.3,4.56 67.15,19.07 104.2,58.52 115.18,257.68 43.55,385.23 -28.56,50.85 -65.32,67.49 -94.5,51.1 -54.18,-30.42 -72.99,-102.39 -97.94,-188.77 -8.15,35.98 -13.6,69.11 -27.17,93.29 -7.49,13.34 -19.57,15.33 -32.91,7.83 -34.18,-19.19 -72.92,-77.13 -88.87,-163.94 l 24.73,-6.94 c 12.96,51.13 27.67,83.52 39.34,90.07 6.67,3.74 13.18,1.92 16.92,-4.75 4.22,-7.51 15.07,-46.37 32.54,-106.74 z m -25.55,326.68 c -13.97,50.27 -23.01,78.09 -0.41,151.09 10.33,34.32 21.92,60.55 43.59,72.73 23.34,13.11 47.71,4.86 65.03,-25.98 54.78,-97.54 70.55,-256.46 3.86,-293.91 -23.34,-13.11 -51.57,-13.61 -84.12,-4.47 z m 421.33,421.71 c -77.57,-24.23 -107.93,-93.81 -91.12,-147.66 16.53,-52.92 63.87,-76.21 114.4,-106.51 19.73,-11.86 37.52,-30.35 42.65,-46.77 10.55,-33.77 -6.86,-74.27 -60.71,-91.08 -26.47,-8.26 -48.99,-0.28 -55.83,21.63 -1.43,4.56 -5.14,16.43 -6.84,21.9 -4.28,13.69 -20.13,22.76 -38.38,17.07 -19.17,-5.99 -28.93,-26.07 -22.65,-46.14 12.82,-41.08 56.22,-64.58 128.32,-42.07 86.7,27.08 126.81,100.7 107.43,162.76 -16.24,52.02 -63.01,73.48 -121.63,107.26 -19.74,11.87 -35.42,30.01 -41.97,50.99 -9.69,31.04 9.88,58.18 30.87,64.74 21.91,6.84 40.95,-9.25 62.73,-24.49 8.96,-6.21 17.68,-8.5 29.55,-4.79 18.25,5.7 26.18,25.2 21.63,39.81 -8.27,26.46 -44.6,40.16 -98.45,23.35" /><path
         id="path302"
         style="fill:#1c5178;fill-opacity:1;fill-rule:nonzero;stroke:none"
         d="m 1230.36,104.887 c -36.34,-8.6487 -79.6,-15.5745 -119.4,-15.5745 -29.41,0 -65.75,3.4609 -93.44,6.9258 115.94,496.6097 193.8,794.2307 218.03,882.4767 36.33,-3.461 81.33,-5.192 122.85,-5.192 200.72,0 297.62,60.567 297.62,157.457 0,36.34 -22.49,67.49 -60.56,67.49 -27.69,0 -48.45,-25.95 -48.45,-44.99 0,-24.23 5.19,-44.99 5.19,-53.64 0,-44.99 -36.34,-64.02 -98.63,-64.02 -124.59,0 -261.28,34.6 -413.55,34.6 -328.77,0 -510.454,-195.525 -510.454,-401.44 0,-91.707 36.336,-160.921 89.977,-160.921 29.414,0 57.102,22.496 57.102,57.101 0,27.688 -25.957,51.91 -55.372,86.52 -12.113,15.57 -19.035,43.258 -19.035,64.019 0,88.25 48.45,169.574 131.508,216.297 60.563,34.606 164.383,57.102 299.354,57.102 29.41,0 46.72,-1.731 76.13,-3.465 C 1057.32,797.027 1007.14,537.473 915.434,219.09 887.746,125.652 839.297,99.6992 732.016,87.5859 L 719.902,40.8633 c 55.371,8.6523 114.203,15.5742 174.766,15.5742 83.059,0 160.922,-12.1133 226.672,-12.1133 32.88,0 67.49,6.9219 96.91,12.1133 z m 366.83,115.933 c 25.95,109.012 34.61,233.598 169.57,372.028 69.22,69.211 119.4,77.863 178.23,98.629 36.33,12.109 60.56,31.144 60.56,62.293 0,27.687 -24.23,55.371 -58.83,55.371 -53.64,0 -176.5,-115.934 -278.59,-275.129 l 36.34,150.543 c 3.46,17.304 10.38,46.718 10.38,58.832 0,17.304 -15.57,25.957 -32.87,25.957 -41.53,0 -162.66,-43.262 -285.51,-174.77 l 25.96,-29.414 c 57.09,58.832 103.81,102.09 133.23,102.09 12.11,0 19.03,-6.918 19.03,-19.031 0,-15.574 -25.95,-140.16 -83.05,-363.375 L 1432.8,56.4375 h 126.32 z m 880.75,527.758 c -15.58,1.731 -39.8,5.192 -55.37,5.192 -60.57,0 -121.13,-1.731 -204.19,-48.45 -171.3,-96.898 -316.65,-339.148 -316.65,-515.644 0,-91.7112 38.07,-157.4612 110.74,-157.4612 76.14,0 195.53,79.5942 287.24,188.6052 l -34.6,-114.203 c -1.74,-5.191 -6.93,-22.492 -6.93,-32.8748 0,-27.6875 13.85,-41.5274 43.26,-41.5274 98.63,0 190.34,83.0552 288.97,173.0352 l -25.96,32.875 c -64.02,-62.293 -124.58,-95.172 -143.61,-95.172 -15.57,0 -20.77,10.383 -20.77,25.957 0,1.731 19.04,173.035 89.98,410.094 l 64.02,214.562 -57.1,-12.109 z M 2322.21,388.664 c -44.99,-171.305 -157.47,-243.976 -223.22,-243.976 -43.26,0 -69.22,36.335 -69.22,107.277 0,84.789 19.04,157.465 53.65,230.14 55.37,121.125 126.31,179.954 231.87,179.954 24.22,0 55.37,-5.188 77.86,-10.379 z m 636.77,356.453 c -221.49,0 -335.69,-62.293 -335.69,-173.035 0,-41.527 20.76,-69.215 53.64,-69.215 22.49,0 38.06,17.305 38.06,34.606 0,24.226 -19.03,51.914 -19.03,72.675 0,48.45 89.98,81.329 259.56,84.79 -112.48,-86.516 -167.85,-204.18 -167.85,-323.579 0,-114.199 38.07,-235.324 57.1,-370.29259 C 3157.96,149.875 3369.07,425 3369.07,675.906 c 0,67.481 -17.31,105.551 -60.57,105.551 -31.14,0 -51.91,-29.418 -51.91,-55.375 0,-43.258 39.8,-76.133 39.8,-128.047 0,-126.312 -102.09,-297.621 -340.87,-479.305 -19.04,86.52 -32.88,164.383 -32.88,226.676 0,136.699 50.18,240.52 114.2,340.879 25.95,10.383 51.91,22.496 51.91,46.719 0,17.305 -17.3,36.34 -34.61,36.34 -17.3,0 -46.71,-13.844 -69.21,-24.227 z m 892.86,-475.844 c -102.09,-76.136 -176.5,-126.32 -237.06,-126.32 -58.83,0 -76.14,36.34 -76.14,107.285 0,27.684 3.46,60.563 8.65,86.516 223.22,100.359 382.41,178.226 382.41,320.117 0,70.942 -43.26,112.473 -122.85,112.473 -218.03,0 -403.17,-302.813 -403.17,-564.094 0,-112.4766 38.06,-171.3086 121.12,-171.3086 107.28,0 219.75,69.2186 354.72,197.2616 z m -294.16,121.122 c 29.41,186.878 102.09,308.003 181.68,308.003 43.26,0 69.22,-34.605 69.22,-79.597 0,-72.676 -84.79,-154 -250.9,-228.406 z m 723.28,394.523 c 65.75,280.312 74.41,356.452 160.93,356.452 58.82,0 103.81,-15.58 147.07,-15.58 50.18,0 79.6,25.96 79.6,62.3 0,34.6 -29.42,58.83 -77.86,58.83 -105.56,0 -219.76,-50.18 -290.7,-129.78 -77.87,-88.25 -107.29,-211.101 -143.62,-358.179 l -91.71,-372.027 c -36.34,-145.348 -51.91,-243.981 -51.91,-280.317 0,-41.5272 22.49,-74.4022 60.56,-74.4022 67.48,0 204.18,83.0552 304.54,197.2582 l -29.41,31.148 c -88.25,-84.789 -166.12,-134.969 -193.81,-134.969 -13.84,0 -20.76,15.575 -20.76,25.957 0,19.032 24.23,115.93 62.3,280.313 l 84.78,352.996" /></g></g></svg>